<svg width="100" height="100" viewBox="0 0 100 100" fill="none" xmlns="http://www.w3.org/2000/svg">
<path d="M88.2855 48.4196C88.5805 48.6122 88.913 48.7032 89.2402 48.7032C89.8166 48.7032 90.3805 48.4175 90.7181 47.8963C91.2455 47.0767 91.011 45.983 90.197 45.4534L51.4526 20.2826C50.87 19.9048 50.1258 19.9089 49.5432 20.2826L35.4886 29.4146V21.7667C35.4886 20.7913 34.7006 20 33.7292 20H24.6523C23.681 20 22.8951 20.7913 22.8951 21.7667V37.4602C22.8951 37.4643 22.893 37.4643 22.893 37.4685V37.5973L10.803 45.4534C9.98899 45.983 9.75449 47.0767 10.2819 47.8963C10.8113 48.7137 11.9005 48.9492 12.7145 48.4196L22.893 41.8048V74.9604H13.0626C12.0912 74.9604 11.3033 75.7517 11.3033 76.7272C11.3033 77.7027 12.0912 78.4939 13.0626 78.4939H31.1184C32.0898 78.4939 32.8777 77.7027 32.8777 76.7272C32.8777 75.7517 32.0898 74.9604 31.1184 74.9604H26.4075V39.521L50.4958 23.8705L74.5915 39.5252V74.9594H70.4413C69.4699 74.9594 68.682 75.7507 68.682 76.7261C68.682 77.7016 69.4699 78.4929 70.4413 78.4929H87.9374C88.9088 78.4929 89.6967 77.7016 89.6967 76.7261C89.6967 75.7507 88.9088 74.9594 87.9374 74.9594H78.1122V41.809L88.2855 48.4196Z" fill="url(#paint0_linear_510_5181)"/>
<path d="M51.1378 35.4464C50.7209 35.281 50.2644 35.2831 49.8517 35.4464C40.8571 38.9997 34.8152 48.0511 34.8173 57.9712C34.8194 67.479 40.3746 76.1693 48.749 80L48.7469 72.6954L42.4955 66.4177C41.8097 65.729 41.8097 64.608 42.4955 63.9193C43.1813 63.2306 44.2976 63.2306 44.9834 63.9193L48.7448 67.6967L48.7427 62.0605L42.4997 55.7827C41.8139 55.094 41.8139 53.973 42.5018 53.2844C43.1897 52.5936 44.3038 52.5978 44.9896 53.2864L48.7417 57.0596L48.7396 47.5194C48.7396 46.5439 49.5265 45.7548 50.4989 45.7548C51.4703 45.7548 52.2582 46.5439 52.2582 47.5194V52.1582L56.0239 48.3724C56.7097 47.6837 57.8217 47.6796 58.5117 48.3724C59.1975 49.059 59.1996 50.18 58.5117 50.8687L52.2603 57.1549L52.2624 61.2964C52.2624 61.3247 52.2624 61.3519 52.2624 61.3802V62.791L56.028 59.0074C56.7159 58.3187 57.8301 58.3187 58.5159 59.0053C59.2038 59.6961 59.2038 60.815 58.518 61.5037L52.2645 67.7856V71.9482C52.2645 71.9607 52.2645 71.9722 52.2645 71.9827L52.2687 79.9979C60.6389 76.1651 66.1878 67.4727 66.1847 57.965C66.1805 48.0396 60.1345 38.9893 51.1378 35.4464Z" fill="url(#paint1_linear_510_5181)"/>
<defs>
<linearGradient id="paint0_linear_510_5181" x1="50.0824" y1="96.891" x2="50.0824" y2="7.61487" gradientUnits="userSpaceOnUse">
<stop stop-color="#642C09"/>
<stop offset="1" stop-color="#C35116"/>
</linearGradient>
<linearGradient id="paint1_linear_510_5181" x1="50.0824" y1="96.891" x2="50.0824" y2="7.61487" gradientUnits="userSpaceOnUse">
<stop stop-color="#642C09"/>
<stop offset="1" stop-color="#C35116"/>
</linearGradient>
</defs>
</svg>
