<svg width="40" height="40" viewBox="0 0 40 40" fill="none" xmlns="http://www.w3.org/2000/svg">
<path d="M15.6172 25.0847L24.2345 16.4268L34.5485 26.7159C32.1381 32.2538 26.6355 36.1267 20.2381 36.1267C14.638 36.1267 9.72361 33.1591 6.96875 28.7048L13.3068 22.7634L15.6172 25.0847Z" fill="#FEFCFB"/>
<path d="M18.5334 16.0323C18.5334 16.998 17.787 17.7443 16.8214 17.7443C15.912 17.7443 15.1094 16.9928 15.1094 16.0323C15.1094 15.0667 15.8557 14.3203 16.8214 14.3203C17.787 14.3203 18.5334 15.0667 18.5334 16.0323Z" fill="#FEFCFB" stroke="#FEFCFB"/>
<path d="M35.5587 22.6984C35.6718 21.9372 35.7303 21.1583 35.7303 20.3659C35.7303 11.6664 29.0654 5 20.3659 5C11.6664 5 5 11.6664 5 20.3659C5 21.1583 5.05858 21.9372 5.17166 22.6984" stroke="#FEFCFB"/>
<path d="M35.5587 22.6984C35.6718 21.9372 35.7303 21.1583 35.7303 20.3659C35.7303 11.6664 29.0654 5 20.3659 5C11.6664 5 5 11.6664 5 20.3659C5 21.1583 5.05858 21.9372 5.17166 22.6984" stroke="#FEFCFB"/>
</svg>
