<svg width="100" height="100" viewBox="0 0 100 100" fill="none" xmlns="http://www.w3.org/2000/svg">
<path d="M32.1014 64.4307L23.2048 79.9528L33.2616 78.5007L37.0416 88L46.7921 70.9879L44.2939 69.2727C44.0514 69.1062 43.7519 69.0466 43.4647 69.1077L37.9884 70.2731C37.5538 70.3656 37.1073 70.1798 36.8642 69.8053L33.8053 65.0927C33.6447 64.8453 33.3909 64.6746 33.1026 64.6201L32.1014 64.4307Z" fill="url(#paint0_linear_510_6233)"/>
<path d="M52.2425 70.9642L62.0065 88L65.7865 78.5007L75.8433 79.9528L66.9421 64.4225L65.8975 64.6201C65.6092 64.6746 65.3554 64.8453 65.1948 65.0927L62.136 69.8053C61.8929 70.1798 61.4464 70.3656 61.0118 70.2731L55.5354 69.1077C55.2482 69.0466 54.9487 69.1062 54.7062 69.2727L52.2425 70.9642Z" fill="url(#paint1_linear_510_6233)"/>
<path d="M60.9132 52.1541V38.843L49.5008 26.8629L38.0884 38.843V52.1541H47.2183V44.107H51.7832V52.1541H60.9132Z" fill="url(#paint2_linear_510_6233)"/>
<path fill-rule="evenodd" clip-rule="evenodd" d="M48.89 11.1908L44.6846 14.1017C44.4415 14.27 44.1405 14.3304 43.8519 14.269L38.8417 13.2028C38.4071 13.1103 37.9607 13.296 37.7176 13.6706L34.9177 17.9841C34.7571 18.2314 34.5034 18.4021 34.215 18.4566L29.2079 19.4039C28.7711 19.4865 28.4295 19.8308 28.3479 20.2709L27.4067 25.3433C27.3527 25.6341 27.1832 25.8901 26.9374 26.052L22.6533 28.8737C22.2826 29.1178 22.0981 29.5655 22.1881 30.0023L23.2232 35.0265C23.2826 35.3147 23.2232 35.6148 23.0587 35.858L20.1871 40.1022C19.9382 40.47 19.9376 40.9536 20.1855 41.322L23.0606 45.5951C23.224 45.838 23.2828 46.1371 23.2236 46.4243L22.1881 51.4502C22.0981 51.8869 22.2826 52.3347 22.6533 52.5788L26.9373 55.4003C27.1832 55.5622 27.3527 55.8183 27.4067 56.1091L28.3479 61.1815C28.4295 61.6215 28.7711 61.9659 29.2079 62.0485L34.215 62.9957C34.5034 63.0503 34.7571 63.2209 34.9177 63.4683L37.7176 67.7818C37.9607 68.1563 38.4071 68.3421 38.8417 68.2496L43.8543 67.1829C44.1415 67.1217 44.441 67.1813 44.6835 67.3479L48.8934 70.2381C49.2593 70.4894 49.7407 70.4894 50.1066 70.2381L54.3164 67.3479C54.5589 67.1813 54.8585 67.1217 55.1456 67.1829L60.1583 68.2496C60.5929 68.3421 61.0393 68.1563 61.2824 67.7818L64.0822 63.4683C64.2428 63.2209 64.4966 63.0503 64.7849 62.9957L69.7922 62.0485C70.2289 61.9659 70.5705 61.6215 70.6521 61.1815L71.5933 56.1091C71.6473 55.8183 71.8168 55.5622 72.0627 55.4003L76.3466 52.5788C76.7172 52.3347 76.9018 51.8869 76.8118 51.4502L75.7763 46.4244C75.7171 46.1371 75.7759 45.838 75.9393 45.5951L78.8145 41.322C79.0624 40.9536 79.0618 40.47 78.8129 40.1022L75.9412 35.858C75.7766 35.6148 75.7172 35.3147 75.7766 35.0265L76.8118 30.0023C76.9018 29.5655 76.7172 29.1178 76.3466 28.8737L72.0627 26.052C71.8168 25.8901 71.6473 25.6341 71.5933 25.3433L70.6521 20.2709C70.5705 19.8308 70.2289 19.4865 69.7922 19.4039L64.7849 18.4566C64.4966 18.4021 64.2428 18.2314 64.0822 17.984L61.2824 13.6706C61.0393 13.2961 60.5929 13.1103 60.1583 13.2028L55.148 14.269C54.8594 14.3304 54.5585 14.27 54.3154 14.1017L50.11 11.1908C49.7425 10.9364 49.2575 10.9364 48.89 11.1908ZM49.5001 63.6501C62.1058 63.6501 72.3248 53.3562 72.3248 40.6581C72.3248 27.96 62.1058 17.6661 49.5001 17.6661C36.8943 17.6661 26.6754 27.96 26.6754 40.6581C26.6754 53.3562 36.8943 63.6501 49.5001 63.6501Z" fill="url(#paint3_linear_510_6233)"/>
<path fill-rule="evenodd" clip-rule="evenodd" d="M48.89 11.1908L44.6846 14.1017C44.4415 14.27 44.1405 14.3304 43.8519 14.269L38.8417 13.2028C38.4071 13.1103 37.9607 13.296 37.7176 13.6706L34.9177 17.9841C34.7571 18.2314 34.5034 18.4021 34.215 18.4566L29.2079 19.4039C28.7711 19.4865 28.4295 19.8308 28.3479 20.2709L27.4067 25.3433C27.3527 25.6341 27.1832 25.8901 26.9374 26.052L22.6533 28.8737C22.2826 29.1178 22.0981 29.5655 22.1881 30.0023L23.2232 35.0265C23.2826 35.3147 23.2232 35.6148 23.0587 35.858L20.1871 40.1022C19.9382 40.47 19.9376 40.9536 20.1855 41.322L23.0606 45.5951C23.224 45.838 23.2828 46.1371 23.2236 46.4243L22.1881 51.4502C22.0981 51.8869 22.2826 52.3347 22.6533 52.5788L26.9373 55.4003C27.1832 55.5622 27.3527 55.8183 27.4067 56.1091L28.3479 61.1815C28.4295 61.6215 28.7711 61.9659 29.2079 62.0485L34.215 62.9957C34.5034 63.0503 34.7571 63.2209 34.9177 63.4683L37.7176 67.7818C37.9607 68.1563 38.4071 68.3421 38.8417 68.2496L43.8543 67.1829C44.1415 67.1217 44.441 67.1813 44.6835 67.3479L48.8934 70.2381C49.2593 70.4894 49.7407 70.4894 50.1066 70.2381L54.3164 67.3479C54.5589 67.1813 54.8585 67.1217 55.1456 67.1829L60.1583 68.2496C60.5929 68.3421 61.0393 68.1563 61.2824 67.7818L64.0822 63.4683C64.2428 63.2209 64.4966 63.0503 64.7849 62.9957L69.7922 62.0485C70.2289 61.9659 70.5705 61.6215 70.6521 61.1815L71.5933 56.1091C71.6473 55.8183 71.8168 55.5622 72.0627 55.4003L76.3466 52.5788C76.7172 52.3347 76.9018 51.8869 76.8118 51.4502L75.7763 46.4244C75.7171 46.1371 75.7759 45.838 75.9393 45.5951L78.8145 41.322C79.0624 40.9536 79.0618 40.47 78.8129 40.1022L75.9412 35.858C75.7766 35.6148 75.7172 35.3147 75.7766 35.0265L76.8118 30.0023C76.9018 29.5655 76.7172 29.1178 76.3466 28.8737L72.0627 26.052C71.8168 25.8901 71.6473 25.6341 71.5933 25.3433L70.6521 20.2709C70.5705 19.8308 70.2289 19.4865 69.7922 19.4039L64.7849 18.4566C64.4966 18.4021 64.2428 18.2314 64.0822 17.984L61.2824 13.6706C61.0393 13.2961 60.5929 13.1103 60.1583 13.2028L55.148 14.269C54.8594 14.3304 54.5585 14.27 54.3154 14.1017L50.11 11.1908C49.7425 10.9364 49.2575 10.9364 48.89 11.1908ZM49.5001 63.6501C62.1058 63.6501 72.3248 53.3562 72.3248 40.6581C72.3248 27.96 62.1058 17.6661 49.5001 17.6661C36.8943 17.6661 26.6754 27.96 26.6754 40.6581C26.6754 53.3562 36.8943 63.6501 49.5001 63.6501ZM60.9132 38.843V52.1541H51.7832V44.107H47.2183V52.1541H38.0884V38.843L49.5008 26.8629L60.9132 38.843Z" fill="url(#paint4_linear_510_6233)"/>
<defs>
<linearGradient id="paint0_linear_510_6233" x1="49.1958" y1="109.677" x2="49.1959" y2="-4.89425" gradientUnits="userSpaceOnUse">
<stop stop-color="#642C09"/>
<stop offset="1" stop-color="#C35116"/>
</linearGradient>
<linearGradient id="paint1_linear_510_6233" x1="49.1958" y1="109.677" x2="49.1959" y2="-4.89425" gradientUnits="userSpaceOnUse">
<stop stop-color="#642C09"/>
<stop offset="1" stop-color="#C35116"/>
</linearGradient>
<linearGradient id="paint2_linear_510_6233" x1="49.1958" y1="109.677" x2="49.1959" y2="-4.89425" gradientUnits="userSpaceOnUse">
<stop stop-color="#642C09"/>
<stop offset="1" stop-color="#C35116"/>
</linearGradient>
<linearGradient id="paint3_linear_510_6233" x1="49.1958" y1="109.677" x2="49.1959" y2="-4.89425" gradientUnits="userSpaceOnUse">
<stop stop-color="#642C09"/>
<stop offset="1" stop-color="#C35116"/>
</linearGradient>
<linearGradient id="paint4_linear_510_6233" x1="49.1958" y1="109.677" x2="49.1959" y2="-4.89425" gradientUnits="userSpaceOnUse">
<stop stop-color="#642C09"/>
<stop offset="1" stop-color="#C35116"/>
</linearGradient>
</defs>
</svg>
