<svg width="100" height="100" viewBox="0 0 100 100" fill="none" xmlns="http://www.w3.org/2000/svg">
<path fill-rule="evenodd" clip-rule="evenodd" d="M11.8968 58.4789C14.1342 58.7138 16.4854 58.1439 18.2219 56.8622C18.3748 56.7491 18.4943 56.5963 18.5676 56.4208C18.6409 56.2452 18.6653 56.0531 18.6382 55.8648L18.2923 53.4516C18.2563 53.2007 18.131 52.9711 17.9394 52.8051C17.7479 52.6391 17.5029 52.5477 17.2494 52.5477C16.0214 52.5477 12.1554 51.4915 11 48.328C13.0997 49.1343 15.5189 49.1924 17.5278 48.4033C17.705 48.3338 17.86 48.2176 17.9764 48.0671C18.0927 47.9165 18.1662 47.7372 18.1889 47.5483L18.4791 45.1277C18.5094 44.8761 18.4479 44.622 18.306 44.4121C18.1641 44.2021 17.9513 44.0503 17.7066 43.9846C16.5197 43.6668 13.0598 41.6461 12.7624 38.2913C14.5815 39.6147 16.9033 40.2961 19.0479 40.0537C19.2371 40.0324 19.417 39.9603 19.5685 39.845C19.72 39.7297 19.8374 39.5755 19.9083 39.3988L20.8153 37.1358C20.9096 36.9006 20.9159 36.6392 20.833 36.3996C20.7502 36.1601 20.5837 35.9584 20.3642 35.8317C19.3004 35.2174 16.4809 32.3699 17.062 29.0527C18.4773 30.8015 20.5433 32.0604 22.6776 32.3817C22.8658 32.41 23.0581 32.3868 23.2341 32.3146C23.4102 32.2424 23.5634 32.1239 23.6775 31.9716L25.1391 30.0206C25.2911 29.8177 25.3649 29.5669 25.3468 29.314C25.3288 29.0612 25.2202 28.8234 25.041 28.6441C24.1724 27.7754 22.186 24.2954 23.6059 21.2413C24.5204 23.2962 26.1901 25.0477 28.1685 25.9105C28.3429 25.9865 28.5347 26.0139 28.7234 25.9897C28.9121 25.9655 29.0908 25.8907 29.2404 25.7732L31.1573 24.2669C31.3566 24.1103 31.4928 23.8871 31.5409 23.6382C31.589 23.3893 31.5456 23.1314 31.4189 22.9119C30.8046 21.8479 29.7868 17.9723 31.9484 15.3898C32.3003 17.6115 33.4596 19.7354 35.1472 21.0806C35.296 21.1993 35.4742 21.2754 35.6627 21.3009C35.8513 21.3264 36.0433 21.3003 36.2182 21.2255L38.4606 20.2663C38.6937 20.1666 38.8829 19.9862 38.9937 19.7583C39.1045 19.5303 39.1293 19.27 39.0637 19.0252C38.8601 18.2648 38.7865 16.5019 39.4186 14.7637C39.874 13.5107 40.5788 12.5503 41.5227 11.8917C41.286 14.1308 41.8561 16.4835 43.1392 18.2216C43.2522 18.3746 43.4045 18.4942 43.5799 18.5676C43.7554 18.641 43.9474 18.6655 44.1357 18.6386L46.549 18.2931C46.8 18.2572 47.0295 18.132 47.1956 17.9404C47.3617 17.7489 47.4532 17.5039 47.4532 17.2504C47.4532 16.0214 48.5095 12.1556 51.673 11C50.8667 13.0998 50.8088 15.5189 51.5976 17.5279C51.6672 17.705 51.7835 17.86 51.9341 17.9763C52.0846 18.0926 52.2639 18.166 52.4529 18.1886L54.8733 18.479C55.125 18.5092 55.3791 18.4476 55.5891 18.3055C55.799 18.1635 55.9507 17.9505 56.0163 17.7056C56.22 16.9452 57.0374 15.3823 58.4543 14.1926C59.4753 13.3353 60.566 12.8556 61.7126 12.7575C60.3884 14.5776 59.7053 16.901 59.9474 19.0473C59.9686 19.2365 60.0407 19.4164 60.156 19.5679C60.2713 19.7194 60.4254 19.8368 60.6021 19.9076L62.8649 20.815C63.1002 20.9093 63.3617 20.9157 63.6012 20.8328C63.8408 20.75 64.0425 20.5835 64.1693 20.364C64.5629 19.6822 65.757 18.3839 67.4337 17.6013C68.6417 17.0374 69.8192 16.8566 70.9526 17.0581C69.2023 18.473 67.9409 20.5408 67.6195 22.6764C67.5912 22.8645 67.6143 23.0568 67.6865 23.2328C67.7587 23.4089 67.8772 23.562 68.0294 23.6761L69.9802 25.1383C70.1831 25.2903 70.434 25.3641 70.6869 25.3461C70.9398 25.328 71.1777 25.2194 71.3569 25.0401C71.9135 24.4836 73.4032 23.5385 75.2252 23.2165C76.5379 22.9842 77.7222 23.1146 78.7646 23.6027C76.7068 24.5171 74.9543 26.1877 74.0908 28.1676C74.0147 28.342 73.9873 28.5338 74.0115 28.7226C74.0356 28.9113 74.1105 29.09 74.2281 29.2397L75.7343 31.1566C75.8909 31.3559 76.1142 31.492 76.3631 31.5401C76.612 31.5881 76.8699 31.5447 77.0894 31.418C77.7712 31.0243 79.454 30.4975 81.2976 30.6576C82.6254 30.7733 83.7354 31.2054 84.6159 31.9468C82.3923 32.2974 80.2664 33.4572 78.9199 35.1462C78.8013 35.295 78.7252 35.4732 78.6997 35.6618C78.6742 35.8503 78.7003 36.0423 78.7751 36.2172L79.735 38.4595C79.8346 38.6926 80.0151 38.8819 80.2431 38.9927C80.4711 39.1035 80.7314 39.1284 80.9763 39.0627C82.1626 38.7444 86.1697 38.7643 88.1046 41.5207C85.8672 41.2858 83.5159 41.8557 81.7797 43.1374C81.6264 43.2503 81.5065 43.4026 81.4329 43.5781C81.3592 43.7536 81.3345 43.9458 81.3613 44.1343L81.7068 46.5476C81.7428 46.7985 81.868 47.028 82.0595 47.1941C82.2511 47.3601 82.4961 47.4516 82.7496 47.4516C83.9786 47.4516 87.8444 48.5078 89 51.6713C86.9001 50.8652 84.4811 50.8069 82.4722 51.596C82.2951 51.6655 82.1401 51.7817 82.0238 51.9322C81.9074 52.0827 81.834 52.2619 81.8113 52.4508L81.5216 54.8713C81.4913 55.1229 81.5527 55.377 81.6946 55.587C81.8365 55.797 82.0494 55.9488 82.2941 56.0146C83.4815 56.3324 86.9414 58.3532 87.2388 61.708C85.4197 60.3846 83.0977 59.7037 80.9533 59.9456C80.7641 59.9669 80.5842 60.0389 80.4327 60.1542C80.2812 60.2695 80.1638 60.4237 80.093 60.6003L79.1856 62.8631C79.0912 63.0984 79.0849 63.3598 79.1678 63.5994C79.2506 63.839 79.4171 64.0407 79.6366 64.1674C80.3184 64.5613 81.6168 65.7551 82.3993 67.4317C82.9634 68.64 83.1443 69.8174 82.9425 70.9505C81.5276 69.2002 79.46 67.9391 77.3241 67.6176C77.1359 67.5891 76.9434 67.6122 76.7671 67.6844C76.5909 67.7566 76.4376 67.8752 76.3234 68.0276L74.8615 69.9782C74.7095 70.181 74.6357 70.4319 74.6537 70.6848C74.6717 70.9377 74.7803 71.1756 74.9595 71.3548C75.8283 72.2236 77.8147 75.7039 76.395 78.758C75.4803 76.7029 73.8107 74.9516 71.8324 74.0888C71.6581 74.013 71.4665 73.9856 71.278 74.0098C71.0894 74.0339 70.9109 74.1086 70.7614 74.226L68.8441 75.7319C68.6447 75.8885 68.5085 76.1117 68.4604 76.3607C68.4124 76.6096 68.4557 76.8675 68.5825 77.0871C69.1968 78.1511 70.215 82.0268 68.0531 84.6095C67.7013 82.3878 66.542 80.2639 64.8544 78.9187C64.7056 78.8 64.5274 78.7239 64.3388 78.6984C64.1503 78.6729 63.9583 78.699 63.7833 78.7738L61.5416 79.733C61.3085 79.8326 61.1192 80.013 61.0084 80.241C60.8975 80.4689 60.8726 80.7292 60.9382 80.9741C61.142 81.7345 61.2156 83.4976 60.5835 85.2357C60.1281 86.489 59.4233 87.4495 58.4794 88.1081C58.7161 85.869 58.146 83.5164 56.8629 81.7782C56.7497 81.6254 56.5973 81.5061 56.4218 81.4328C56.2463 81.3595 56.0543 81.335 55.866 81.3619L53.4527 81.708C53.2019 81.744 52.9723 81.8692 52.8063 82.0607C52.6403 82.2523 52.5489 82.4972 52.5489 82.7507C52.5489 83.9786 51.4926 87.8446 48.3291 89C49.1354 86.9002 49.1933 84.4811 48.4045 82.4721C48.3349 82.295 48.2187 82.1401 48.0682 82.0238C47.9177 81.9075 47.7385 81.8341 47.5496 81.8114L45.1291 81.5205C44.8775 81.4899 44.6233 81.5513 44.4133 81.6932C44.2032 81.8351 44.0515 82.0481 43.986 82.293C43.7821 83.0534 42.9647 84.6165 41.5478 85.8064C40.5268 86.6638 39.4361 87.1433 38.2895 87.2417C39.6136 85.4215 40.2968 83.0982 40.0547 80.9518C40.0335 80.7626 39.9613 80.5827 39.846 80.4312C39.7307 80.2797 39.5765 80.1623 39.3998 80.0915L37.1368 79.1845C36.9015 79.0901 36.6401 79.0838 36.4005 79.1667C36.1609 79.2495 35.9592 79.416 35.8325 79.6355C35.439 80.3173 34.2448 81.6154 32.5684 82.398C31.3603 82.9621 30.183 83.1427 29.0495 82.941C30.7998 81.5261 32.0611 79.4584 32.3826 77.3227C32.4109 77.1345 32.3878 76.9422 32.3155 76.7662C32.2433 76.5901 32.1248 76.4369 31.9725 76.3228L30.0215 74.8612C29.8186 74.7092 29.5678 74.6355 29.3149 74.6535C29.0621 74.6715 28.8243 74.7801 28.645 74.9593C28.0883 75.5159 26.5989 76.461 24.7769 76.7828C23.464 77.0151 22.2797 76.8848 21.2375 76.3966C23.2953 75.4822 25.0478 73.8116 25.9113 71.8317C25.9874 71.6573 26.0147 71.4655 25.9906 71.2768C25.9664 71.0881 25.8916 70.9094 25.774 70.7598L24.2681 68.8428C24.1115 68.6434 23.8883 68.5072 23.6394 68.4592C23.3905 68.4111 23.1326 68.4544 22.913 68.5812C21.8492 69.1955 17.9733 70.2136 15.3906 68.0516C17.6126 67.7001 19.7362 66.5408 21.0816 64.8531C21.2002 64.7043 21.2764 64.5261 21.3019 64.3375C21.3274 64.149 21.3013 63.957 21.2265 63.7821L20.2663 61.54C20.1665 61.307 19.9862 61.1177 19.7582 61.007C19.5302 60.8962 19.2699 60.8713 19.0251 60.9369C17.8393 61.2554 13.8318 61.2354 11.8968 58.4789ZM50.0008 78.0292C34.5203 78.0292 21.9709 65.48 21.9709 49.9997C21.9709 34.5193 34.5203 21.9701 50.0008 21.9701C65.4813 21.9701 78.0307 34.5193 78.0307 49.9997C78.0307 65.48 65.4813 78.0292 50.0008 78.0292Z" fill="url(#paint0_linear_510_4520)"/>
<path fill-rule="evenodd" clip-rule="evenodd" d="M50.0009 65.8424C41.251 65.8424 34.1579 58.7493 34.1579 49.9996C34.1579 41.2498 41.251 34.1568 50.0009 34.1568C58.7507 34.1568 65.8438 41.2498 65.8438 49.9996C65.8438 58.7493 58.7507 65.8424 50.0009 65.8424ZM50.0009 68.2797C39.9049 68.2797 31.7205 60.0954 31.7205 49.9996C31.7205 39.9037 39.9049 31.7194 50.0009 31.7194C60.0968 31.7194 68.2812 39.9037 68.2812 49.9996C68.2812 60.0954 60.0968 68.2797 50.0009 68.2797Z" fill="url(#paint1_linear_510_4520)"/>
<path fill-rule="evenodd" clip-rule="evenodd" d="M50.0008 53.6557C47.9816 53.6557 46.3447 52.0188 46.3447 49.9997C46.3447 47.9805 47.9816 46.3436 50.0008 46.3436C52.02 46.3436 53.6569 47.9805 53.6569 49.9997C53.6569 52.0188 52.02 53.6557 50.0008 53.6557ZM50.0008 56.093C46.6355 56.093 43.9073 53.3649 43.9073 49.9997C43.9073 46.6344 46.6355 43.9063 50.0008 43.9063C53.3661 43.9063 56.0942 46.6344 56.0942 49.9997C56.0942 53.3649 53.3661 56.093 50.0008 56.093Z" fill="url(#paint2_linear_510_4520)"/>
<defs>
<linearGradient id="paint0_linear_510_4520" x1="50.4021" y1="110.958" x2="50.4021" y2="-5.10066" gradientUnits="userSpaceOnUse">
<stop stop-color="#642C09"/>
<stop offset="1" stop-color="#C35116"/>
</linearGradient>
<linearGradient id="paint1_linear_510_4520" x1="50.4021" y1="110.958" x2="50.4021" y2="-5.10066" gradientUnits="userSpaceOnUse">
<stop stop-color="#642C09"/>
<stop offset="1" stop-color="#C35116"/>
</linearGradient>
<linearGradient id="paint2_linear_510_4520" x1="50.4021" y1="110.958" x2="50.4021" y2="-5.10066" gradientUnits="userSpaceOnUse">
<stop stop-color="#642C09"/>
<stop offset="1" stop-color="#C35116"/>
</linearGradient>
</defs>
</svg>
