<svg xmlns="http://www.w3.org/2000/svg" >
	<symbol id="viber" width="32" height="32" viewBox="0 0 32 32" fill="currentColor">
		<g>
			<rect width="32" height="32" rx="16" fill="currentColor"/>
			<path d="M21.0031 7.63693C17.9539 7.05462 14.7874 7.05462 11.7382 7.63693C10.3895 7.92808 8.68901 9.55854 8.39581 10.8396C7.86806 13.3435 7.86806 15.9057 8.39581 18.4096C8.74764 19.6907 10.4482 21.3212 11.7382 21.6123C11.7969 21.6123 11.8555 21.6705 11.8555 21.7288V25.3973C11.8555 25.572 12.0901 25.6885 12.2073 25.5138L13.9665 23.7086C13.9665 23.7086 15.3738 22.2529 15.6084 22.0199C15.6084 22.0199 15.667 21.9617 15.7257 21.9617C17.4848 22.0199 19.3026 21.8452 21.0618 21.5541C22.4105 21.2629 24.111 19.6325 24.4042 18.3514C24.9319 15.8475 24.9319 13.2853 24.4042 10.7814C24.0524 9.55854 22.3518 7.92808 21.0031 7.63693ZM21.0618 18.5843C20.7686 19.1666 20.4168 19.6325 19.8304 19.9236C19.6545 19.9819 19.4785 20.0401 19.3026 20.0983C19.0681 20.0401 18.8921 19.9819 18.7162 19.9236C16.8398 19.1666 15.0806 18.1185 13.6733 16.6045C12.911 15.731 12.266 14.7411 11.7382 13.6929C11.5037 13.1689 11.2691 12.703 11.0932 12.1789C10.9173 11.7131 11.2105 11.2472 11.5037 10.8979C11.7969 10.5485 12.1487 10.3155 12.5592 10.1409C12.8524 9.96616 13.1456 10.0826 13.3801 10.3155C13.8492 10.8979 14.3183 11.4802 14.6702 12.1207C14.9047 12.5283 14.8461 12.9942 14.4356 13.2853C14.3183 13.3435 14.2597 13.4018 14.1424 13.5182C14.0838 13.5765 13.9665 13.6347 13.9079 13.7512C13.7906 13.9259 13.7906 14.1005 13.8492 14.2752C14.3183 15.6145 15.1979 16.6627 16.5466 17.245C16.7811 17.3615 16.9571 17.4197 17.2503 17.4197C17.6607 17.3615 17.8366 16.8956 18.1298 16.6627C18.423 16.4298 18.7749 16.4298 19.1267 16.6045C19.4199 16.7792 19.7131 17.0121 20.0649 17.245C20.3581 17.4779 20.6513 17.6526 20.9445 17.8855C21.1204 18.002 21.1791 18.2932 21.0618 18.5843ZM18.599 14.217C18.4817 14.217 18.5403 14.217 18.599 14.217C18.3644 14.217 18.3058 14.1005 18.2471 13.9259C18.2471 13.8094 18.2471 13.6347 18.1885 13.5182C18.1298 13.2853 18.0126 13.0524 17.778 12.8777C17.6607 12.8195 17.5435 12.7612 17.4262 12.703C17.2503 12.6448 17.133 12.6448 16.9571 12.6448C16.7812 12.5865 16.7225 12.4701 16.7225 12.2954C16.7225 12.1789 16.8984 12.0625 17.0157 12.0625C17.9539 12.1207 18.6576 12.6448 18.7749 13.7512C18.7749 13.8094 18.7749 13.9259 18.7749 13.9841C18.7749 14.1005 18.7162 14.217 18.599 14.217ZM18.0126 11.6549C17.7194 11.5384 17.4262 11.4219 17.0743 11.3637C16.9571 11.3637 16.7812 11.3055 16.6639 11.3055C16.488 11.3055 16.3707 11.189 16.4293 11.0143C16.4293 10.8396 16.5466 10.7232 16.7225 10.7814C17.3089 10.8396 17.8366 10.9561 18.3644 11.189C19.4199 11.7131 20.0063 12.5865 20.1822 13.7512C20.1822 13.8094 20.1822 13.8676 20.1822 13.9259C20.1822 14.0423 20.1822 14.1588 20.1822 14.3335C20.1822 14.3917 20.1822 14.4499 20.1822 14.5082C20.1236 14.7411 19.7131 14.7993 19.6544 14.5082C19.6544 14.4499 19.5958 14.3335 19.5958 14.2752C19.5958 13.7512 19.4785 13.2271 19.244 12.7612C18.8921 12.2372 18.4817 11.8878 18.0126 11.6549ZM21.1791 15.1487C21.0031 15.1487 20.8859 14.974 20.8859 14.7993C20.8859 14.4499 20.8272 14.1005 20.7686 13.7512C20.534 11.8878 19.0094 10.3738 17.1916 10.0826C16.8984 10.0244 16.6052 10.0244 16.3707 9.96616C16.1948 9.96616 15.9602 9.96616 15.9016 9.73324C15.8429 9.55854 16.0188 9.38385 16.1948 9.38385C16.2534 9.38385 16.312 9.38385 16.312 9.38385C16.4293 9.38385 18.7162 9.44208 16.312 9.38385C18.7749 9.44208 20.8272 11.0725 21.2377 13.5182C21.2963 13.9259 21.355 14.3335 21.355 14.7993C21.4723 14.974 21.355 15.1487 21.1791 15.1487Z" fill="#FEFCFB"/>
		</g>
	</symbol>
	<symbol id="vk" width="32" height="32" viewBox="0 0 32 32" fill="currentColor">
		<g>
			<rect width="32" height="32" rx="16" fill="currentColor"/>
			<path d="M16.786 21.6004C10.7727 21.6004 7.34286 17.3962 7.19995 10.4004H10.2121C10.311 15.5351 12.5316 17.7101 14.2905 18.1585V10.4004H17.1267V14.8288C18.8637 14.6382 20.6885 12.6202 21.3041 10.4004H24.1404C23.9084 11.5517 23.446 12.6417 22.782 13.6024C22.1181 14.5631 21.2669 15.3737 20.2818 15.9836C21.3814 16.5408 22.3527 17.3296 23.1316 18.2978C23.9104 19.266 24.479 20.3916 24.7999 21.6004H21.6779C21.3898 20.5505 20.8043 19.6106 19.9947 18.8987C19.1851 18.1867 18.1874 17.7342 17.1267 17.598V21.6004H16.786Z" fill="#FEFCFB"/>
		</g>
	</symbol>
	<symbol id="playButton" width="38" height="44" viewBox="0 0 38 44" fill="none">
		<g>
			<path d="M38 22L0.499998 43.6506L0.5 0.349364L38 22Z" fill="#FEFCFB"/>
		</g>
	</symbol>
	<symbol id="arrow-down" width="24" height="24" viewBox="0 0 24 24" fill="none">
		<g>
			<path d="M11.9997 13.1709L16.9497 8.22095L18.3637 9.63595L11.9997 15.9999L5.63574 9.63595L7.04974 8.22195L11.9997 13.1719V13.1709Z" fill="#FEFCFB"/>
		</g>
	</symbol>
	<symbol id="arrow-small-up" width="24" height="24" viewBox="0 0 24 24" fill="none">
		<g>
			<path d="M11.9993 10.8291L7.04928 15.7791L5.63528 14.3641L11.9993 8.00005L18.3633 14.3641L16.9493 15.7781L11.9993 10.8281L11.9993 10.8291Z" fill="currentColor"/>
		</g>
	</symbol>
	<symbol id="house" width="24" height="24" viewBox="0 0 24 24" fill="none">
		<g>
			<path d="M21 20.9993H3.00004V9.04862L12 2.26562L21 9.04862V20.9993ZM11 12.9993V18.9993H13V12.9993H11Z" fill="#C35116"/>
		</g>
	</symbol>
	<symbol id="download" viewBox="0 0 32 32" fill="none">
		<g>
			<path d="M26 14L24.59 12.59L17 20.17V2H15V20.17L7.41 12.59L6 14L16 24L26 14Z" fill="#C35116"/>
			<path d="M26 24V28H6V24H4V28L6 30H26L28 28V24H26Z" fill="#C35116"/>
		</g>
	</symbol>
	<symbol id="map-point" width="24" height="24" viewBox="0 0 24 24" fill="none">
		<g>
			<path d="M18.364 17.3639L12 23.7279L5.636 17.3639C4.37734 16.1052 3.52019 14.5016 3.17293 12.7558C2.82567 11.0099 3.00391 9.20035 3.6851 7.55582C4.36629 5.91129 5.51984 4.50569 6.99988 3.51677C8.47992 2.52784 10.22 2 12 2C13.78 2 15.5201 2.52784 17.0001 3.51677C18.4802 4.50569 19.6337 5.91129 20.3149 7.55582C20.9961 9.20035 21.1743 11.0099 20.8271 12.7558C20.4798 14.5016 19.6227 16.1052 18.364 17.3639ZM12 12.9999C12.5304 12.9999 13.0391 12.7892 13.4142 12.4141C13.7893 12.0391 14 11.5304 14 10.9999C14 10.4695 13.7893 9.96078 13.4142 9.58571C13.0391 9.21064 12.5304 8.99992 12 8.99992C11.4696 8.99992 10.9609 9.21064 10.5858 9.58571C10.2107 9.96078 10 10.4695 10 10.9999C10 11.5304 10.2107 12.0391 10.5858 12.4141C10.9609 12.7892 11.4696 12.9999 12 12.9999Z" fill="#C35116"/>
		</g>
	</symbol>
	<symbol id="menu" width="32" height="32" viewBox="0 0 32 32" fill="currentColor">
		<g>
			<path d="M4 5.33337H28V8.00004H4V5.33337ZM12 14.6667H28V17.3334H12V14.6667ZM4 24H28V26.6667H4V24Z" fill="#FEFCFB"/>
		</g>
	</symbol>
	<symbol id="phone" width="32" height="32" viewBox="0 0 32 32" fill="currentColor">
		<g>
			<path d="M28 21.8933V26.608C28.0002 26.9456 27.8723 27.2706 27.6421 27.5176C27.412 27.7646 27.0967 27.915 26.76 27.9387C26.1773 27.9787 25.7013 28 25.3333 28C13.5507 28 4 18.4493 4 6.66667C4 6.29867 4.02 5.82267 4.06133 5.24C4.08496 4.90326 4.23544 4.58801 4.4824 4.35788C4.72937 4.12774 5.05443 3.99985 5.392 4H10.1067C10.2721 3.99983 10.4316 4.06115 10.5543 4.17203C10.677 4.28291 10.7541 4.43544 10.7707 4.6C10.8013 4.90667 10.8293 5.15067 10.856 5.336C11.121 7.18523 11.664 8.98378 12.4667 10.6707C12.5933 10.9373 12.5107 11.256 12.2707 11.4267L9.39333 13.4827C11.1526 17.5819 14.4194 20.8487 18.5187 22.608L20.572 19.736C20.6559 19.6187 20.7784 19.5345 20.918 19.4982C21.0576 19.4619 21.2055 19.4757 21.336 19.5373C23.0227 20.3386 24.8208 20.8802 26.6693 21.144C26.8547 21.1707 27.0987 21.1987 27.4027 21.2293C27.567 21.2462 27.7192 21.3234 27.8298 21.4461C27.9404 21.5688 28.0002 21.7282 28 21.8933Z" fill="#FEFCFB"/>
		</g>
	</symbol>
	<symbol id="close" width="32" height="32" viewBox="0 0 32 32" fill="currentColor">
		<g>
			<path d="M16.0001 14.1146L22.6001 7.51465L24.4868 9.40132L17.8868 16.0013L24.4868 22.6013L22.6001 24.4866L16.0001 17.8866L9.40011 24.4866L7.51611 22.6L14.1161 16L7.51611 9.39998L9.40011 7.51731L16.0001 14.1173V14.1146Z" fill="#FEFCFB"/>
		</g>
	</symbol>
	<symbol id="small-arrow-up" width="18" height="12" viewBox="0 0 18 12" fill="none">
		<g>
			<path d="M9.00096 7.56143L15.601 0.961426L17.4863 2.84809L9.00096 11.3334L0.515625 2.84809L2.40096 0.96276L9.00096 7.56276V7.56143Z" fill="currentColor"/>
		</g>
	</symbol>
	<symbol id="small-close" width="16" height="16" viewBox="0 0 16 16" fill="none">
		<g>
			<path d="M7.99981 7.05732L11.2998 3.75732L12.2431 4.70066L8.94315 8.00066L12.2431 11.3007L11.2998 12.2433L7.99981 8.94332L4.69981 12.2433L3.75781 11.3L7.05781 7.99999L3.75781 4.69999L4.69981 3.75866L7.99981 7.05866V7.05732Z" fill="currentColor"/>
		</g>
	</symbol>
	<symbol id="arrow-up" width="32" height="32" viewBox="0 0 32 32" fill="currentColor">
		<g>
			<path d="M17.3333 10.437V26.6663H14.6667V10.437L7.51467 17.589L5.62933 15.7037L16 5.33301L26.3707 15.7037L24.4853 17.589L17.3333 10.437Z" fill="#FEFCFB"/>
		</g>
	</symbol>
	<symbol id="art-gorka" viewBox="0 0 36 36" fill="none">
		<g>
			<path d="M15.6172 25.0847L24.2345 16.4268L34.5485 26.7159C32.1381 32.2538 26.6355 36.1267 20.2381 36.1267C14.638 36.1267 9.72361 33.1591 6.96875 28.7048L13.3068 22.7634L15.6172 25.0847Z" fill="#FEFCFB"/>
			<path d="M18.5334 16.0323C18.5334 16.998 17.787 17.7443 16.8214 17.7443C15.912 17.7443 15.1094 16.9928 15.1094 16.0323C15.1094 15.0667 15.8557 14.3203 16.8214 14.3203C17.787 14.3203 18.5334 15.0667 18.5334 16.0323Z" fill="#FEFCFB" stroke="#FEFCFB"/>
			<path d="M35.5587 22.6984C35.6718 21.9372 35.7303 21.1583 35.7303 20.3659C35.7303 11.6664 29.0654 5 20.3659 5C11.6664 5 5 11.6664 5 20.3659C5 21.1583 5.05858 21.9372 5.17166 22.6984" stroke="#FEFCFB"/>
			<path d="M35.5587 22.6984C35.6718 21.9372 35.7303 21.1583 35.7303 20.3659C35.7303 11.6664 29.0654 5 20.3659 5C11.6664 5 5 11.6664 5 20.3659C5 21.1583 5.05858 21.9372 5.17166 22.6984" stroke="#FEFCFB"/>
		</g>
	</symbol>
	<symbol id="filter" width="25" height="24" viewBox="0 0 25 24" fill="none">
		<g>
			<path d="M10.5 14L4.5 5V3H20.5V5L14.5 14V20L10.5 22V14Z" fill="currentColor"/>
		</g>
	</symbol>
	<symbol id="whatsapp" width="32" height="32" viewBox="0 0 32 32" fill="currentColor">
		<g>
			<rect width="32" height="32" rx="16" fill="currentColor"/>
			<path d="M22.3415 9.65019C20.761 8.07519 18.6537 7.2002 16.4293 7.2002C11.8049 7.2002 8.05854 10.9335 8.05854 15.5419C8.05854 17.0002 8.46829 18.4585 9.17073 19.6835L8 24.0002L12.4488 22.8335C13.6781 23.4752 15.0244 23.8252 16.4293 23.8252C21.0537 23.8252 24.8 20.0919 24.8 15.4835C24.7415 13.3252 23.9219 11.2252 22.3415 9.65019ZM20.4683 18.5169C20.2927 18.9835 19.4732 19.4502 19.0634 19.5085C18.7122 19.5669 18.2439 19.5669 17.7756 19.4502C17.4829 19.3335 17.0732 19.2169 16.6049 18.9835C14.4976 18.1085 13.1512 16.0085 13.0341 15.8335C12.9171 15.7169 12.1561 14.7252 12.1561 13.6752C12.1561 12.6252 12.6829 12.1585 12.8585 11.9252C13.0341 11.6919 13.2683 11.6919 13.4439 11.6919C13.561 11.6919 13.7366 11.6919 13.8537 11.6919C13.9707 11.6919 14.1463 11.6335 14.322 12.0419C14.4976 12.4502 14.9073 13.5002 14.9659 13.5585C15.0244 13.6752 15.0244 13.7919 14.9659 13.9085C14.9073 14.0252 14.8488 14.1419 14.7317 14.2585C14.6146 14.3752 14.4976 14.5502 14.439 14.6085C14.3219 14.7252 14.2049 14.8419 14.322 15.0169C14.439 15.2502 14.8488 15.8919 15.4927 16.4752C16.3122 17.1752 16.9561 17.4085 17.1902 17.5252C17.4244 17.6419 17.5415 17.5835 17.6585 17.4669C17.7756 17.3502 18.1854 16.8835 18.3024 16.6502C18.4195 16.4169 18.5951 16.4752 18.7707 16.5335C18.9463 16.5919 20 17.1169 20.1756 17.2335C20.4098 17.3502 20.5268 17.4085 20.5854 17.4669C20.6439 17.6419 20.6439 18.0502 20.4683 18.5169Z" fill="#FEFCFB"/>
		</g>
	</symbol>
	<symbol id="instagram" width="32" height="32" viewBox="0 0 32 32" fill="currentColor">
		<g>
			<rect width="32" height="32" rx="16" fill="currentColor"/>
			<path d="M16 9.44578C18.1205 9.44578 18.4096 9.44578 19.2771 9.44578C20.0482 9.44578 20.4337 9.63855 20.7229 9.73494C21.1084 9.92771 21.3976 10.0241 21.6867 10.3133C21.9759 10.6024 22.1687 10.8916 22.2651 11.2771C22.3614 11.5663 22.4578 11.9518 22.5542 12.7229C22.5542 13.5904 22.5542 13.7831 22.5542 16C22.5542 18.2169 22.5542 18.4096 22.5542 19.2771C22.5542 20.0482 22.3614 20.4337 22.2651 20.7229C22.0723 21.1084 21.9759 21.3976 21.6867 21.6867C21.3976 21.9759 21.1084 22.1687 20.7229 22.2651C20.4337 22.3614 20.0482 22.4578 19.2771 22.5542C18.4096 22.5542 18.2169 22.5542 16 22.5542C13.7831 22.5542 13.5904 22.5542 12.7229 22.5542C11.9518 22.5542 11.5663 22.3614 11.2771 22.2651C10.8916 22.0723 10.6024 21.9759 10.3133 21.6867C10.0241 21.3976 9.83133 21.1084 9.73494 20.7229C9.63855 20.4337 9.54217 20.0482 9.44578 19.2771C9.44578 18.4096 9.44578 18.2169 9.44578 16C9.44578 13.7831 9.44578 13.5904 9.44578 12.7229C9.44578 11.9518 9.63855 11.5663 9.73494 11.2771C9.92771 10.8916 10.0241 10.6024 10.3133 10.3133C10.6024 10.0241 10.8916 9.83133 11.2771 9.73494C11.5663 9.63855 11.9518 9.54217 12.7229 9.44578C13.5904 9.44578 13.8795 9.44578 16 9.44578ZM16 8C13.7831 8 13.5904 8 12.7229 8C11.8554 8 11.2771 8.19277 10.7952 8.38554C10.3133 8.57831 9.83133 8.86747 9.3494 9.3494C8.86747 9.83133 8.6747 10.2169 8.38554 10.7952C8.19277 11.2771 8.09639 11.8554 8 12.7229C8 13.5904 8 13.8795 8 16C8 18.2169 8 18.4096 8 19.2771C8 20.1446 8.19277 20.7229 8.38554 21.2048C8.57831 21.6867 8.86747 22.1687 9.3494 22.6506C9.83133 23.1325 10.2169 23.3253 10.7952 23.6145C11.2771 23.8072 11.8554 23.9036 12.7229 24C13.5904 24 13.8795 24 16 24C18.1205 24 18.4096 24 19.2771 24C20.1446 24 20.7229 23.8072 21.2048 23.6145C21.6867 23.4217 22.1687 23.1325 22.6506 22.6506C23.1325 22.1687 23.3253 21.7831 23.6145 21.2048C23.8072 20.7229 23.9036 20.1446 24 19.2771C24 18.4096 24 18.1205 24 16C24 13.8795 24 13.5904 24 12.7229C24 11.8554 23.8072 11.2771 23.6145 10.7952C23.4217 10.3133 23.1325 9.83133 22.6506 9.3494C22.1687 8.86747 21.7831 8.6747 21.2048 8.38554C20.7229 8.19277 20.1446 8.09639 19.2771 8C18.4096 8 18.2169 8 16 8Z" fill="#FEFCFB"/>
			<path d="M16 11.8554C13.6867 11.8554 11.8554 13.6867 11.8554 16C11.8554 18.3133 13.6867 20.1446 16 20.1446C18.3133 20.1446 20.1446 18.3133 20.1446 16C20.1446 13.6867 18.3133 11.8554 16 11.8554ZM16 18.6988C14.5542 18.6988 13.3012 17.5422 13.3012 16C13.3012 14.5542 14.4578 13.3012 16 13.3012C17.4458 13.3012 18.6988 14.4578 18.6988 16C18.6988 17.4458 17.4458 18.6988 16 18.6988Z" fill="#FEFCFB"/>
			<path d="M20.241 12.7229C20.7733 12.7229 21.2048 12.2914 21.2048 11.759C21.2048 11.2267 20.7733 10.7952 20.241 10.7952C19.7086 10.7952 19.2771 11.2267 19.2771 11.759C19.2771 12.2914 19.7086 12.7229 20.241 12.7229Z" fill="#FEFCFB"/>
		</g>
	</symbol>
</svg>