<svg width="100" height="100" viewBox="0 0 100 100" fill="none" xmlns="http://www.w3.org/2000/svg">
<path d="M69.6923 76.1159H30.4615V79.5507H69.6923V76.1159Z" fill="url(#paint0_linear_510_3617)"/>
<path d="M69.6923 64.6667H30.4615V68.1014H69.6923V64.6667Z" fill="url(#paint1_linear_510_3617)"/>
<path d="M65.0769 70.3913H25.8462V73.8261H65.0769V70.3913Z" fill="url(#paint2_linear_510_3617)"/>
<path d="M71.4231 81.8406H32.1923V85.2754H71.4231V81.8406Z" fill="url(#paint3_linear_510_3617)"/>
<path d="M71.4231 87.5652H32.1923V91H71.4231V87.5652Z" fill="url(#paint4_linear_510_3617)"/>
<path fill-rule="evenodd" clip-rule="evenodd" d="M49.5 56.6522C59.0588 56.6522 66.8077 48.9632 66.8077 39.4783C66.8077 29.9934 59.0588 22.3043 49.5 22.3043C39.9412 22.3043 32.1923 29.9934 32.1923 39.4783C32.1923 48.9632 39.9412 56.6522 49.5 56.6522ZM49.5 62.3768C62.245 62.3768 72.5769 52.1248 72.5769 39.4783C72.5769 26.8317 62.245 16.5797 49.5 16.5797C36.755 16.5797 26.4231 26.8317 26.4231 39.4783C26.4231 52.1248 36.755 62.3768 49.5 62.3768Z" fill="url(#paint5_linear_510_3617)"/>
<path d="M56.4231 33.77V41.0566L54.2319 43.3628H47.1923V44.8104H52.9266V46.6749H47.1923V48.6377H44.4883V46.6749H42.5769V44.8104H44.4883V43.3628H42.5769V41.0812H44.4883V31.4638H54.2319L56.4231 33.77ZM47.1923 41.0812H53.7191V33.8681H47.1923V41.0812Z" fill="url(#paint6_linear_510_3617)"/>
<path d="M17.1923 46.3478L17.945 50.7532L22.3846 51.5L17.945 52.2468L17.1923 56.6522L16.4396 52.2468L12 51.5L16.4396 50.7532L17.1923 46.3478Z" fill="url(#paint7_linear_510_3617)"/>
<path d="M79.5 12L80.5872 18.3633L87 19.442L80.5872 20.5208L79.5 26.8841L78.4128 20.5208L72 19.442L78.4128 18.3633L79.5 12Z" fill="url(#paint8_linear_510_3617)"/>
<defs>
<linearGradient id="paint0_linear_510_3617" x1="49.1133" y1="127.912" x2="49.1134" y2="-6.67043" gradientUnits="userSpaceOnUse">
<stop stop-color="#642C09"/>
<stop offset="1" stop-color="#C35116"/>
</linearGradient>
<linearGradient id="paint1_linear_510_3617" x1="49.1133" y1="127.912" x2="49.1134" y2="-6.67043" gradientUnits="userSpaceOnUse">
<stop stop-color="#642C09"/>
<stop offset="1" stop-color="#C35116"/>
</linearGradient>
<linearGradient id="paint2_linear_510_3617" x1="49.1133" y1="127.912" x2="49.1134" y2="-6.67043" gradientUnits="userSpaceOnUse">
<stop stop-color="#642C09"/>
<stop offset="1" stop-color="#C35116"/>
</linearGradient>
<linearGradient id="paint3_linear_510_3617" x1="49.1133" y1="127.912" x2="49.1134" y2="-6.67043" gradientUnits="userSpaceOnUse">
<stop stop-color="#642C09"/>
<stop offset="1" stop-color="#C35116"/>
</linearGradient>
<linearGradient id="paint4_linear_510_3617" x1="49.1133" y1="127.912" x2="49.1134" y2="-6.67043" gradientUnits="userSpaceOnUse">
<stop stop-color="#642C09"/>
<stop offset="1" stop-color="#C35116"/>
</linearGradient>
<linearGradient id="paint5_linear_510_3617" x1="49.1133" y1="127.912" x2="49.1134" y2="-6.67043" gradientUnits="userSpaceOnUse">
<stop stop-color="#642C09"/>
<stop offset="1" stop-color="#C35116"/>
</linearGradient>
<linearGradient id="paint6_linear_510_3617" x1="49.1133" y1="127.912" x2="49.1134" y2="-6.67043" gradientUnits="userSpaceOnUse">
<stop stop-color="#642C09"/>
<stop offset="1" stop-color="#C35116"/>
</linearGradient>
<linearGradient id="paint7_linear_510_3617" x1="49.1133" y1="127.912" x2="49.1134" y2="-6.67043" gradientUnits="userSpaceOnUse">
<stop stop-color="#642C09"/>
<stop offset="1" stop-color="#C35116"/>
</linearGradient>
<linearGradient id="paint8_linear_510_3617" x1="49.1133" y1="127.912" x2="49.1134" y2="-6.67043" gradientUnits="userSpaceOnUse">
<stop stop-color="#642C09"/>
<stop offset="1" stop-color="#C35116"/>
</linearGradient>
</defs>
</svg>
