<svg width="100" height="100" viewBox="0 0 100 100" fill="none" xmlns="http://www.w3.org/2000/svg">
<path d="M57.8171 54.5599L53.1931 59.0787V90.3215L64.8571 90.3227V92L34.5714 91.9989V90.3215H48.5337V71.1437L38.2686 60.9019H24.3223V58.6249H35.9863L33.4171 56.0616L33.416 56.0627L20.8571 43.5325L22.2754 42.1174L33.6 53.4162V39.7868H35.8823V53.8814L48.5337 66.504V38.8871L29.8777 20.2737L31.4914 18.6636L41.2229 28.3729V14.8415H43.5051V22.3261L49.3303 16.5143L50.944 18.1243L43.5051 25.5462V29.2303L51.456 37.1631L58.9006 29.7355V15.6613H61.1829V22.6089L66.9246 16.8803L68.1714 18.1243L61.1829 25.0969L61.1794 31.0547L53.192 39.0353V54.439L68.1726 39.4926V25.3979H70.4549V38.5485L81.5394 27.4892L83.1977 29.1437L76.4469 35.878H85.5257V38.1551H74.1646L60.0034 52.2816H69.6754V54.5587L57.8171 54.5599Z" fill="url(#paint0_linear_510_4577)"/>
<path d="M22.8645 13.8865L21.5099 14.2716L19.6478 13.1311L21.5099 11.9907L22.8645 12.3757L23.1429 11.2712L22.0942 10.9726L22.374 9.85993L21.3346 9.563L20.9717 11.0004L19.1096 12.1424V9.85993L20.1014 8.8076L19.3403 8L18.5714 8.81576L17.8026 8L17.0415 8.8076L18.0333 9.85993V12.1424L16.1712 11.0004L15.8067 9.563L14.7688 9.85993L15.0487 10.9726L14 11.2712L14.2783 12.3757L15.633 11.9907L17.4951 13.1311L15.633 14.2716L14.2783 13.8865L14 14.9911L15.0487 15.2896L14.7688 16.404L15.8067 16.6993L16.1712 15.2619L18.0333 14.1198V16.4023L17.0415 17.4547L17.8026 18.2623L18.5714 17.4465L19.3403 18.2623L20.1014 17.4547L19.1096 16.4023V14.1198L20.9717 15.2619L21.3346 16.6993L22.374 16.404L22.0942 15.2896L23.1429 14.9911L22.8645 13.8865Z" fill="url(#paint1_linear_510_4577)"/>
<path d="M85.7565 13.7187L84.5711 14.0181L82.9418 13.1311L84.5711 12.2441L85.7565 12.5436L86 11.6845L85.0824 11.4523L85.3273 10.5869L84.4178 10.3559L84.1002 11.4739L82.4709 12.3621V10.5869L83.3387 9.76839L82.6727 9.14025L82 9.77473L81.3273 9.14025L80.6613 9.76839L81.5291 10.5869V12.3621L79.8998 11.4739L79.5809 10.3559L78.6727 10.5869L78.9176 11.4523L78 11.6845L78.2435 12.5436L79.4289 12.2441L81.0582 13.1311L79.4289 14.0181L78.2435 13.7187L78 14.5777L78.9176 14.81L78.6727 15.6767L79.5809 15.9063L79.8998 14.7884L81.5291 13.9001V15.6754L80.6613 16.4939L81.3273 17.122L82 16.4875L82.6727 17.122L83.3387 16.4939L82.4709 15.6754V13.9001L84.1002 14.7884L84.4178 15.9063L85.3273 15.6767L85.0824 14.81L86 14.5777L85.7565 13.7187Z" fill="url(#paint2_linear_510_4577)"/>
<path d="M78.8993 67.3104L77.714 67.6099L76.0847 66.7229L77.714 65.8359L78.8993 66.1354L79.1429 65.2763L78.2253 65.0441L78.4701 64.1786L77.5606 63.9477L77.2431 65.0657L75.6138 65.9539V64.1786L76.4816 63.3602L75.8156 62.732L75.1429 63.3665L74.4701 62.732L73.8041 63.3602L74.672 64.1786V65.9539L73.0426 65.0657L72.7238 63.9477L71.8156 64.1786L72.0604 65.0441L71.1429 65.2763L71.3864 66.1354L72.5717 65.8359L74.201 66.7229L72.5717 67.6099L71.3864 67.3104L71.1429 68.1695L72.0604 68.4017L71.8156 69.2684L72.7238 69.4981L73.0426 68.3802L74.672 67.4919V69.2672L73.8041 70.0857L74.4701 70.7138L75.1429 70.0793L75.8156 70.7138L76.4816 70.0857L75.6138 69.2672V67.4919L77.2431 68.3802L77.5606 69.4981L78.4701 69.2684L78.2253 68.4017L79.1429 68.1695L78.8993 67.3104Z" fill="url(#paint3_linear_510_4577)"/>
<defs>
<linearGradient id="paint0_linear_510_4577" x1="49.6288" y1="115.647" x2="49.6288" y2="-9.33918" gradientUnits="userSpaceOnUse">
<stop stop-color="#642C09"/>
<stop offset="1" stop-color="#C35116"/>
</linearGradient>
<linearGradient id="paint1_linear_510_4577" x1="49.6288" y1="115.647" x2="49.6288" y2="-9.33918" gradientUnits="userSpaceOnUse">
<stop stop-color="#642C09"/>
<stop offset="1" stop-color="#C35116"/>
</linearGradient>
<linearGradient id="paint2_linear_510_4577" x1="49.6288" y1="115.647" x2="49.6288" y2="-9.33918" gradientUnits="userSpaceOnUse">
<stop stop-color="#642C09"/>
<stop offset="1" stop-color="#C35116"/>
</linearGradient>
<linearGradient id="paint3_linear_510_4577" x1="49.6288" y1="115.647" x2="49.6288" y2="-9.33918" gradientUnits="userSpaceOnUse">
<stop stop-color="#642C09"/>
<stop offset="1" stop-color="#C35116"/>
</linearGradient>
</defs>
</svg>
