<svg width="100" height="80" viewBox="0 0 100 80" fill="none" xmlns="http://www.w3.org/2000/svg">
<path d="M49.8347 24.8032L55.8622 30.7659L49.8347 36.7286L43.8072 30.7659L49.8347 24.8032Z" fill="#C35116"/>
<path d="M61.8896 12.8778L67.9171 18.8405L61.8896 24.8032L55.8622 18.8405L61.8896 12.8778Z" fill="#642C09"/>
<path d="M49.8347 12.8778L55.8622 18.8405L49.8347 24.8032L43.8072 18.8405L49.8347 12.8778Z" fill="#642C09"/>
<path d="M37.7798 24.8032L43.8072 30.7659L37.7798 36.7286L31.7523 30.7659L37.7798 24.8032Z" fill="#642C09"/>
<path d="M31.7523 18.8405L37.7798 24.8032L31.7523 30.7659L25.7249 24.8032L31.7523 18.8405Z" fill="#E48B41"/>
<path d="M37.7798 12.8778L43.8072 18.8405L37.7798 24.8032L31.7523 18.8405L37.7798 12.8778Z" fill="#642C09"/>
<path d="M43.8072 6.9151L49.8347 12.8778L43.8072 18.8405L37.7798 12.8778L43.8072 6.9151Z" fill="#C35116"/>
<path d="M49.8347 0.952393L55.8622 6.9151L49.8347 12.8778L43.8072 6.9151L49.8347 0.952393Z" fill="#C35116"/>
<path d="M55.8622 6.9151L61.8896 12.8778L55.8622 18.8405L49.8347 12.8778L55.8622 6.9151Z" fill="#C35116"/>
<path d="M37.7798 36.7286L43.8073 42.6913L37.7798 48.654L31.7523 42.6913L37.7798 36.7286Z" fill="#642C09"/>
<path d="M49.8347 36.7286L55.8622 42.6913L49.8347 48.654L43.8073 42.6913L49.8347 36.7286Z" fill="#642C09"/>
<path d="M61.8896 24.8032L67.9171 30.7659L61.8896 36.7286L55.8622 30.7659L61.8896 24.8032Z" fill="#642C09"/>
<path d="M67.9171 18.8405L73.9446 24.8032L67.9171 30.7659L61.8896 24.8032L67.9171 18.8405Z" fill="#E48B41"/>
<path d="M61.8896 36.7286L67.9171 42.6913L61.8896 48.654L55.8622 42.6913L61.8896 36.7286Z" fill="#642C09"/>
<path d="M55.8622 42.6913L58.3441 45.1466L55.8622 47.6018L53.3803 45.1466L55.8622 42.6913Z" fill="#C35116"/>
<path d="M43.8073 42.6913L46.2891 45.1466L43.8073 47.6018L41.3254 45.1466L43.8073 42.6913Z" fill="#C35116"/>
<path d="M35.2979 34.2734L37.7798 36.7286L35.2979 39.1839L32.816 36.7286L35.2979 34.2734Z" fill="#C35116"/>
<path d="M64.3715 34.2734L66.8534 36.7286L64.3715 39.1839L61.8896 36.7286L64.3715 34.2734Z" fill="#C35116"/>
<path d="M55.8622 18.8405L61.8896 24.8032L55.8622 30.7659L49.8347 24.8032L55.8622 18.8405Z" fill="#F2D9CA"/>
<path d="M43.8072 18.8405L49.8347 24.8032L43.8072 30.7659L37.7798 24.8032L43.8072 18.8405Z" fill="#F2D9CA"/>
<path d="M43.8072 30.7659L49.8347 36.7286L43.8073 42.6913L37.7798 36.7286L43.8072 30.7659Z" fill="#F2D9CA"/>
<path d="M55.8622 30.7659L61.8896 36.7286L55.8622 42.6913L49.8347 36.7286L55.8622 30.7659Z" fill="#F2D9CA"/>
<path fill-rule="evenodd" clip-rule="evenodd" d="M49.8343 24.6277L56.039 30.7658L49.8343 36.9038L43.6295 30.7658L49.8343 24.6277ZM49.8343 24.9784L43.9841 30.7658L49.8343 36.5531L55.6844 30.7658L49.8343 24.9784Z" fill="#F2D9CA"/>
<path fill-rule="evenodd" clip-rule="evenodd" d="M61.8892 12.7023L68.0939 18.8403L61.8892 24.9784L55.6844 18.8403L61.8892 12.7023ZM61.8892 13.053L56.039 18.8403L61.8892 24.6277L67.7394 18.8403L61.8892 13.053Z" fill="#F2D9CA"/>
<path fill-rule="evenodd" clip-rule="evenodd" d="M49.8343 12.7023L56.039 18.8403L49.8343 24.9784L43.6295 18.8403L49.8343 12.7023ZM49.8343 13.053L43.9841 18.8403L49.8343 24.6277L55.6844 18.8403L49.8343 13.053Z" fill="#F2D9CA"/>
<path fill-rule="evenodd" clip-rule="evenodd" d="M37.7793 24.6277L43.9841 30.7658L37.7793 36.9038L31.5746 30.7658L37.7793 24.6277ZM37.7793 24.9784L31.9291 30.7658L37.7793 36.5531L43.6295 30.7658L37.7793 24.9784Z" fill="#F2D9CA"/>
<path fill-rule="evenodd" clip-rule="evenodd" d="M31.7519 18.665L37.9566 24.8031L31.7519 30.9411L25.5471 24.8031L31.7519 18.665ZM31.7519 19.0157L25.9017 24.8031L31.7519 30.5904L37.6021 24.8031L31.7519 19.0157Z" fill="#F2D9CA"/>
<path fill-rule="evenodd" clip-rule="evenodd" d="M37.7793 12.7023L43.9841 18.8403L37.7793 24.9784L31.5746 18.8403L37.7793 12.7023ZM37.7793 13.053L31.9291 18.8403L37.7793 24.6277L43.6295 18.8403L37.7793 13.053Z" fill="#F2D9CA"/>
<path fill-rule="evenodd" clip-rule="evenodd" d="M43.8068 6.73956L50.0115 12.8776L43.8068 19.0157L37.602 12.8776L43.8068 6.73956ZM43.8068 7.09031L37.9566 12.8776L43.8068 18.665L49.657 12.8776L43.8068 7.09031Z" fill="#F2D9CA"/>
<path fill-rule="evenodd" clip-rule="evenodd" d="M49.8343 0.776855L56.039 6.91494L49.8343 13.053L43.6295 6.91494L49.8343 0.776855ZM49.8343 1.1276L43.9841 6.91494L49.8343 12.7023L55.6844 6.91494L49.8343 1.1276Z" fill="#F2D9CA"/>
<path fill-rule="evenodd" clip-rule="evenodd" d="M55.8617 6.73956L62.0665 12.8776L55.8617 19.0157L49.657 12.8776L55.8617 6.73956ZM55.8617 7.09031L50.0115 12.8776L55.8617 18.665L61.7119 12.8776L55.8617 7.09031Z" fill="#F2D9CA"/>
<path fill-rule="evenodd" clip-rule="evenodd" d="M37.7793 36.5531L43.9841 42.6912L37.7793 48.8292L31.5746 42.6912L37.7793 36.5531ZM37.7793 36.9038L31.9291 42.6912L37.7793 48.4785L43.6295 42.6912L37.7793 36.9038Z" fill="#F2D9CA"/>
<path fill-rule="evenodd" clip-rule="evenodd" d="M49.8343 36.5531L56.039 42.6912L49.8343 48.8292L43.6295 42.6912L49.8343 36.5531ZM49.8343 36.9038L43.9841 42.6912L49.8343 48.4785L55.6844 42.6912L49.8343 36.9038Z" fill="#F2D9CA"/>
<path fill-rule="evenodd" clip-rule="evenodd" d="M61.8892 24.6277L68.0939 30.7658L61.8892 36.9038L55.6844 30.7658L61.8892 24.6277ZM61.8892 24.9784L56.039 30.7658L61.8892 36.5531L67.7394 30.7658L61.8892 24.9784Z" fill="#F2D9CA"/>
<path fill-rule="evenodd" clip-rule="evenodd" d="M67.9167 18.665L74.1214 24.8031L67.9167 30.9411L61.7119 24.8031L67.9167 18.665ZM67.9167 19.0157L62.0665 24.8031L67.9167 30.5904L73.7668 24.8031L67.9167 19.0157Z" fill="#F2D9CA"/>
<path fill-rule="evenodd" clip-rule="evenodd" d="M61.8892 36.5531L68.0939 42.6912L61.8892 48.8292L55.6844 42.6912L61.8892 36.5531ZM61.8892 36.9038L56.039 42.6912L61.8892 48.4785L67.7394 42.6912L61.8892 36.9038Z" fill="#F2D9CA"/>
<path fill-rule="evenodd" clip-rule="evenodd" d="M55.8617 42.5158L58.5209 45.1464L55.8617 47.777L53.2025 45.1464L55.8617 42.5158ZM55.8617 42.8665L53.5571 45.1464L55.8617 47.4263L58.1663 45.1464L55.8617 42.8665Z" fill="#F2D9CA"/>
<path fill-rule="evenodd" clip-rule="evenodd" d="M43.8068 42.5158L46.466 45.1464L43.8068 47.777L41.1476 45.1464L43.8068 42.5158ZM43.8068 42.8665L41.5022 45.1464L43.8068 47.4263L46.1114 45.1464L43.8068 42.8665Z" fill="#F2D9CA"/>
<path fill-rule="evenodd" clip-rule="evenodd" d="M35.2974 34.0979L37.9566 36.7285L35.2974 39.3591L32.6383 36.7285L35.2974 34.0979ZM35.2974 34.4486L32.9928 36.7285L35.2974 39.0083L37.602 36.7285L35.2974 34.4486Z" fill="#F2D9CA"/>
<path fill-rule="evenodd" clip-rule="evenodd" d="M64.3711 34.0979L67.0303 36.7285L64.3711 39.3591L61.7119 36.7285L64.3711 34.0979ZM64.3711 34.4486L62.0665 36.7285L64.3711 39.0083L66.6757 36.7285L64.3711 34.4486Z" fill="#F2D9CA"/>
<path fill-rule="evenodd" clip-rule="evenodd" d="M55.8617 18.665L62.0665 24.8031L55.8617 30.9411L49.657 24.803L55.8617 18.665ZM55.8617 19.0157L50.0115 24.803L55.8617 30.5904L61.7119 24.8031L55.8617 19.0157Z" fill="#F2D9CA"/>
<path fill-rule="evenodd" clip-rule="evenodd" d="M43.8068 18.665L50.0115 24.803L43.8068 30.9411L37.6021 24.8031L43.8068 18.665ZM43.8068 19.0157L37.9566 24.8031L43.8068 30.5904L49.657 24.803L43.8068 19.0157Z" fill="#F2D9CA"/>
<path fill-rule="evenodd" clip-rule="evenodd" d="M43.8068 30.5904L50.0115 36.7285L43.8068 42.8665L37.602 36.7285L43.8068 30.5904ZM43.8068 30.9411L37.9566 36.7285L43.8068 42.5158L49.657 36.7285L43.8068 30.9411Z" fill="#F2D9CA"/>
<path fill-rule="evenodd" clip-rule="evenodd" d="M55.8617 30.5904L62.0665 36.7285L55.8617 42.8665L49.657 36.7285L55.8617 30.5904ZM55.8617 30.9411L50.0115 36.7285L55.8617 42.5158L61.7119 36.7285L55.8617 30.9411Z" fill="#F2D9CA"/>
<path d="M85.9816 70.0334V56.9779H89.9408V61.6173H92.321L94.772 56.9779H99.2025L95.644 63.0161L99.3675 70.0334H94.8898L92.5096 64.8812H89.9408V70.0334H85.9816Z" fill="url(#paint0_linear_962_10789)"/>
<path d="M71.8924 67.3757V59.6356L74.579 56.9779H83.9114V64.3449H75.8516V66.7695H83.4401V70.0334H74.579L71.8924 67.3757ZM75.8516 62.4332L80.5649 62.2001V59.962H75.8516V62.4332Z" fill="url(#paint1_linear_962_10789)"/>
<path d="M69.8158 56.9779V70.0334H65.8566V60.1485H62.9579L61.4025 70.0334H56.6891V66.6064H58.0796L59.6114 56.9779H69.8158Z" fill="url(#paint2_linear_962_10789)"/>
<path d="M55.1985 70.0334H51.31V61.8271L45.9368 70.0334H42.0012V56.9779H45.8897V65.3241L51.2629 56.9779H55.1985V70.0334Z" fill="url(#paint3_linear_962_10789)"/>
<path d="M29.3159 67.3757V59.6356L32.0025 56.9779H40.2979V60.5215H33.2751V66.4898H40.2979V70.0334H32.0025L29.3159 67.3757Z" fill="url(#paint4_linear_962_10789)"/>
<path d="M15.1379 67.2358V62.5731L23.292 62.34V60.2418H15.6093V56.9779H24.4232L27.2512 59.7755V70.0334H17.9659L15.1379 67.2358ZM19.0971 64.718V66.9094H23.292V64.2517L19.0971 64.718Z" fill="url(#paint5_linear_962_10789)"/>
<path d="M3.95921 60.3117H9.07318V56.838H3.95921V60.3117ZM3.95921 66.9094H9.47381V63.0161H3.95921V66.9094ZM13.1031 56.4184V60.2651L11.7126 61.4074L13.5744 62.9461V67.3291L10.8407 70.0334H0V53.714H10.3693L13.1031 56.4184Z" fill="url(#paint6_linear_962_10789)"/>
<path d="M76.9106 52.381L79.2384 54.6837L76.9106 56.9865L74.5829 54.6837L76.9106 52.381Z" fill="#79350C"/>
<path d="M81.5663 52.381L83.894 54.6837L81.5663 56.9865L79.2385 54.6837L81.5663 52.381Z" fill="#79350C"/>
<path d="M96.7423 76.3376H98.5149V74.9729H96.7423V76.3376ZM95.6034 76.5439V74.8142L96.3734 74.0525H99.6538V78.4958H98.5149V77.2263H97.1273L96.5257 78.4958H95.2665L96.1087 77.0438L95.6034 76.5439Z" fill="url(#paint7_linear_962_10789)"/>
<path d="M94.7428 78.4958H93.6199V75.4013L91.5426 78.4958H90.3315V74.0525H91.4544V77.1786L93.5317 74.0525H94.7428V78.4958Z" fill="url(#paint8_linear_962_10789)"/>
<path d="M85.3264 78.4958V74.0525H86.4654V75.7822H88.3582V74.0525H89.4971V78.4958H88.3582V76.7581H86.4654V78.4958H85.3264Z" fill="url(#paint9_linear_962_10789)"/>
<path d="M80.437 77.623V75.9567L83.3565 75.8774V75.0046H80.5974V74.0525H83.6132L84.4954 74.9253V78.4958H81.3193L80.437 77.623ZM81.576 76.655V77.5754H83.3565V76.4963L81.576 76.655Z" fill="url(#paint10_linear_962_10789)"/>
<path d="M75.5206 78.4958V74.0525H79.6592V78.4958H78.5203V75.0364H76.6595V78.4958H75.5206Z" fill="url(#paint11_linear_962_10789)"/>
<path d="M69.7631 78.4958V74.0525H71.0624L72.2174 76.0916L73.3643 74.0525H74.6637V78.4958H73.5969V75.3061L72.4901 77.3532H71.9447L70.8298 75.3061V78.4958H69.7631Z" fill="url(#paint12_linear_962_10789)"/>
<path d="M64.8977 77.6547V74.8935L65.7479 74.0525H68.138L68.9882 74.8935V77.6547L68.138 78.4958H65.7479L64.8977 77.6547ZM66.0366 77.5754H67.8493V74.9729H66.0366V77.5754Z" fill="url(#paint13_linear_962_10789)"/>
<path d="M60.1368 78.4958V74.0525H61.2757V75.7108H62.3345L63.2969 74.0525H64.5882L63.3049 76.0996L64.6444 78.4958H63.3611L62.4147 76.6629H61.2757V78.4958H60.1368Z" fill="url(#paint14_linear_962_10789)"/>
<path d="M54.3053 76.3376H56.0779V74.9729H54.3053V76.3376ZM53.1664 76.5439V74.8142L53.9364 74.0525H57.2168V78.4958H56.0779V77.2263H54.6903L54.0888 78.4958H52.8295L53.6717 77.0438L53.1664 76.5439Z" fill="url(#paint15_linear_962_10789)"/>
<path d="M48.2529 77.623V75.9567L51.1724 75.8774V75.0046H48.4133V74.0525H51.4291L52.3113 74.9253V78.4958H49.1352L48.2529 77.623ZM49.3918 76.655V77.5754H51.1724V76.4963L49.3918 76.655Z" fill="url(#paint16_linear_962_10789)"/>
<path d="M43.3281 78.4958V74.0525H44.467V75.7822H46.3598V74.0525H47.4988V78.4958H46.3598V76.7581H44.467V78.4958H43.3281Z" fill="url(#paint17_linear_962_10789)"/>
<path d="M38.4327 78.4958V74.0525H39.5716V75.0998H41.7773L42.6275 75.9409V77.6547L41.7773 78.4958H38.4327ZM39.5716 77.5754H41.4885V76.0202H39.5716V77.5754Z" fill="url(#paint18_linear_962_10789)"/>
<path d="M37.5976 74.0525V78.4958H36.4587V74.9729H35.2155L34.622 78.4958H33.1622V77.504H33.6675L34.253 74.0525H37.5976Z" fill="url(#paint19_linear_962_10789)"/>
<path d="M28.672 77.6547V74.8935L29.5221 74.0525H32.6823V76.5439H29.8109V77.5436H32.5218V78.4958H29.5221L28.672 77.6547ZM29.8109 75.925L31.6877 75.8457V74.9411H29.8109V75.925Z" fill="url(#paint20_linear_962_10789)"/>
<path d="M26.6382 78.4958H25.4993V75.0364H23.9834V74.0525H28.1541V75.0364H26.6382V78.4958Z" fill="url(#paint21_linear_962_10789)"/>
<path d="M23.4035 78.4958H22.2806V75.4013L20.2033 78.4958H18.9922V74.0525H20.1151V77.1786L22.1924 74.0525H23.4035V78.4958Z" fill="url(#paint22_linear_962_10789)"/>
<path d="M14.1268 77.6547V74.8935L14.977 74.0525H17.3672L18.2173 74.8935V77.6547L17.3672 78.4958H14.977L14.1268 77.6547ZM15.2658 77.5754H17.0784V74.9729H15.2658V77.5754Z" fill="url(#paint23_linear_962_10789)"/>
<path d="M9.20928 79.6066V74.0525H12.4897L13.404 74.957V77.5912L12.4897 78.4958H10.3482V79.6066H9.20928ZM12.2651 75.0046H10.3482V77.5436H12.2651V75.0046Z" fill="url(#paint24_linear_962_10789)"/>
<path d="M7.11937 78.4958H5.98044V75.0364H4.46456V74.0525H8.63526V75.0364H7.11937V78.4958Z" fill="url(#paint25_linear_962_10789)"/>
<path d="M0.372803 77.6547V74.8935L1.22298 74.0525H4.09435V75.0681H1.51172V77.4802H4.09435V78.4958H1.22298L0.372803 77.6547Z" fill="url(#paint26_linear_962_10789)"/>
<defs>
<linearGradient id="paint0_linear_962_10789" x1="99.4033" y1="60.5344" x2="0.122352" y2="60.5344" gradientUnits="userSpaceOnUse">
<stop stop-color="#642C09"/>
<stop offset="1" stop-color="#C35116"/>
</linearGradient>
<linearGradient id="paint1_linear_962_10789" x1="99.4033" y1="60.5344" x2="0.122352" y2="60.5344" gradientUnits="userSpaceOnUse">
<stop stop-color="#642C09"/>
<stop offset="1" stop-color="#C35116"/>
</linearGradient>
<linearGradient id="paint2_linear_962_10789" x1="99.4033" y1="60.5344" x2="0.122352" y2="60.5344" gradientUnits="userSpaceOnUse">
<stop stop-color="#642C09"/>
<stop offset="1" stop-color="#C35116"/>
</linearGradient>
<linearGradient id="paint3_linear_962_10789" x1="99.4033" y1="60.5344" x2="0.122352" y2="60.5344" gradientUnits="userSpaceOnUse">
<stop stop-color="#642C09"/>
<stop offset="1" stop-color="#C35116"/>
</linearGradient>
<linearGradient id="paint4_linear_962_10789" x1="99.4033" y1="60.5344" x2="0.122352" y2="60.5344" gradientUnits="userSpaceOnUse">
<stop stop-color="#642C09"/>
<stop offset="1" stop-color="#C35116"/>
</linearGradient>
<linearGradient id="paint5_linear_962_10789" x1="99.4033" y1="60.5344" x2="0.122352" y2="60.5344" gradientUnits="userSpaceOnUse">
<stop stop-color="#642C09"/>
<stop offset="1" stop-color="#C35116"/>
</linearGradient>
<linearGradient id="paint6_linear_962_10789" x1="99.4033" y1="60.5344" x2="0.122352" y2="60.5344" gradientUnits="userSpaceOnUse">
<stop stop-color="#642C09"/>
<stop offset="1" stop-color="#C35116"/>
</linearGradient>
<linearGradient id="paint7_linear_962_10789" x1="99.6896" y1="76.3737" x2="0.495049" y2="76.3737" gradientUnits="userSpaceOnUse">
<stop stop-color="#642C09"/>
<stop offset="1" stop-color="#C35116"/>
</linearGradient>
<linearGradient id="paint8_linear_962_10789" x1="99.6896" y1="76.3737" x2="0.495049" y2="76.3737" gradientUnits="userSpaceOnUse">
<stop stop-color="#642C09"/>
<stop offset="1" stop-color="#C35116"/>
</linearGradient>
<linearGradient id="paint9_linear_962_10789" x1="99.6896" y1="76.3737" x2="0.495049" y2="76.3737" gradientUnits="userSpaceOnUse">
<stop stop-color="#642C09"/>
<stop offset="1" stop-color="#C35116"/>
</linearGradient>
<linearGradient id="paint10_linear_962_10789" x1="99.6896" y1="76.3737" x2="0.495049" y2="76.3737" gradientUnits="userSpaceOnUse">
<stop stop-color="#642C09"/>
<stop offset="1" stop-color="#C35116"/>
</linearGradient>
<linearGradient id="paint11_linear_962_10789" x1="99.6896" y1="76.3737" x2="0.495049" y2="76.3737" gradientUnits="userSpaceOnUse">
<stop stop-color="#642C09"/>
<stop offset="1" stop-color="#C35116"/>
</linearGradient>
<linearGradient id="paint12_linear_962_10789" x1="99.6896" y1="76.3737" x2="0.495049" y2="76.3737" gradientUnits="userSpaceOnUse">
<stop stop-color="#642C09"/>
<stop offset="1" stop-color="#C35116"/>
</linearGradient>
<linearGradient id="paint13_linear_962_10789" x1="99.6896" y1="76.3737" x2="0.495049" y2="76.3737" gradientUnits="userSpaceOnUse">
<stop stop-color="#642C09"/>
<stop offset="1" stop-color="#C35116"/>
</linearGradient>
<linearGradient id="paint14_linear_962_10789" x1="99.6896" y1="76.3737" x2="0.495049" y2="76.3737" gradientUnits="userSpaceOnUse">
<stop stop-color="#642C09"/>
<stop offset="1" stop-color="#C35116"/>
</linearGradient>
<linearGradient id="paint15_linear_962_10789" x1="99.6896" y1="76.3737" x2="0.495049" y2="76.3737" gradientUnits="userSpaceOnUse">
<stop stop-color="#642C09"/>
<stop offset="1" stop-color="#C35116"/>
</linearGradient>
<linearGradient id="paint16_linear_962_10789" x1="99.6896" y1="76.3737" x2="0.495049" y2="76.3737" gradientUnits="userSpaceOnUse">
<stop stop-color="#642C09"/>
<stop offset="1" stop-color="#C35116"/>
</linearGradient>
<linearGradient id="paint17_linear_962_10789" x1="99.6896" y1="76.3737" x2="0.495049" y2="76.3737" gradientUnits="userSpaceOnUse">
<stop stop-color="#642C09"/>
<stop offset="1" stop-color="#C35116"/>
</linearGradient>
<linearGradient id="paint18_linear_962_10789" x1="99.6896" y1="76.3737" x2="0.495049" y2="76.3737" gradientUnits="userSpaceOnUse">
<stop stop-color="#642C09"/>
<stop offset="1" stop-color="#C35116"/>
</linearGradient>
<linearGradient id="paint19_linear_962_10789" x1="99.6896" y1="76.3737" x2="0.495049" y2="76.3737" gradientUnits="userSpaceOnUse">
<stop stop-color="#642C09"/>
<stop offset="1" stop-color="#C35116"/>
</linearGradient>
<linearGradient id="paint20_linear_962_10789" x1="99.6896" y1="76.3737" x2="0.495049" y2="76.3737" gradientUnits="userSpaceOnUse">
<stop stop-color="#642C09"/>
<stop offset="1" stop-color="#C35116"/>
</linearGradient>
<linearGradient id="paint21_linear_962_10789" x1="99.6896" y1="76.3737" x2="0.495049" y2="76.3737" gradientUnits="userSpaceOnUse">
<stop stop-color="#642C09"/>
<stop offset="1" stop-color="#C35116"/>
</linearGradient>
<linearGradient id="paint22_linear_962_10789" x1="99.6896" y1="76.3737" x2="0.495049" y2="76.3737" gradientUnits="userSpaceOnUse">
<stop stop-color="#642C09"/>
<stop offset="1" stop-color="#C35116"/>
</linearGradient>
<linearGradient id="paint23_linear_962_10789" x1="99.6896" y1="76.3737" x2="0.495049" y2="76.3737" gradientUnits="userSpaceOnUse">
<stop stop-color="#642C09"/>
<stop offset="1" stop-color="#C35116"/>
</linearGradient>
<linearGradient id="paint24_linear_962_10789" x1="99.6896" y1="76.3737" x2="0.495049" y2="76.3737" gradientUnits="userSpaceOnUse">
<stop stop-color="#642C09"/>
<stop offset="1" stop-color="#C35116"/>
</linearGradient>
<linearGradient id="paint25_linear_962_10789" x1="99.6896" y1="76.3737" x2="0.495049" y2="76.3737" gradientUnits="userSpaceOnUse">
<stop stop-color="#642C09"/>
<stop offset="1" stop-color="#C35116"/>
</linearGradient>
<linearGradient id="paint26_linear_962_10789" x1="99.6896" y1="76.3737" x2="0.495049" y2="76.3737" gradientUnits="userSpaceOnUse">
<stop stop-color="#642C09"/>
<stop offset="1" stop-color="#C35116"/>
</linearGradient>
</defs>
</svg>
