<svg width="255" height="82" viewBox="0 0 255 82" fill="none" xmlns="http://www.w3.org/2000/svg">
<path d="M41.2992 41.0694L51.3697 51.0867L41.2992 61.1041L31.2288 51.0867L41.2992 41.0694Z" fill="#C35116"/>
<path d="M61.4401 21.0347L71.5105 31.052L61.4401 41.0694L51.3697 31.052L61.4401 21.0347Z" fill="#642C09"/>
<path d="M41.2992 21.0347L51.3697 31.052L41.2992 41.0694L31.2288 31.052L41.2992 21.0347Z" fill="#642C09"/>
<path d="M21.1584 41.0694L31.2288 51.0867L21.1584 61.1041L11.088 51.0867L21.1584 41.0694Z" fill="#642C09"/>
<path d="M11.088 31.052L21.1584 41.0694L11.088 51.0867L1.01758 41.0694L11.088 31.052Z" fill="#E48B41"/>
<path d="M21.1584 21.0347L31.2288 31.052L21.1584 41.0694L11.088 31.052L21.1584 21.0347Z" fill="#642C09"/>
<path d="M31.2288 11.0173L41.2992 21.0347L31.2288 31.052L21.1584 21.0347L31.2288 11.0173Z" fill="#C35116"/>
<path d="M41.2992 1L51.3697 11.0173L41.2992 21.0347L31.2288 11.0173L41.2992 1Z" fill="#C35116"/>
<path d="M51.3697 11.0173L61.4401 21.0347L51.3697 31.052L41.2992 21.0347L51.3697 11.0173Z" fill="#C35116"/>
<path d="M21.1584 61.1041L31.2288 71.1214L21.1584 81.1388L11.088 71.1214L21.1584 61.1041Z" fill="#642C09"/>
<path d="M41.2992 61.1041L51.3697 71.1214L41.2992 81.1388L31.2288 71.1214L41.2992 61.1041Z" fill="#642C09"/>
<path d="M61.4401 41.0694L71.5105 51.0867L61.4401 61.1041L51.3697 51.0867L61.4401 41.0694Z" fill="#642C09"/>
<path d="M71.5105 31.052L81.5809 41.0694L71.5105 51.0867L61.4401 41.0694L71.5105 31.052Z" fill="#E48B41"/>
<path d="M61.4401 61.1041L71.5105 71.1214L61.4401 81.1388L51.3697 71.1214L61.4401 61.1041Z" fill="#642C09"/>
<path d="M51.3697 71.1214L55.5163 75.2462L51.3697 79.371L47.223 75.2462L51.3697 71.1214Z" fill="#C35116"/>
<path d="M31.2288 71.1214L35.3755 75.2462L31.2288 79.371L27.0822 75.2462L31.2288 71.1214Z" fill="#C35116"/>
<path d="M17.0118 56.9793L21.1584 61.1041L17.0118 65.2289L12.8651 61.1041L17.0118 56.9793Z" fill="#C35116"/>
<path d="M65.5867 56.9793L69.7334 61.1041L65.5867 65.2289L61.4401 61.1041L65.5867 56.9793Z" fill="#C35116"/>
<path d="M51.3697 31.052L61.4401 41.0694L51.3697 51.0867L41.2992 41.0694L51.3697 31.052Z" fill="#F2D9CA"/>
<path d="M31.2288 31.052L41.2992 41.0694L31.2288 51.0867L21.1584 41.0694L31.2288 31.052Z" fill="#F2D9CA"/>
<path d="M31.2288 51.0867L41.2992 61.1041L31.2288 71.1214L21.1584 61.1041L31.2288 51.0867Z" fill="#F2D9CA"/>
<path d="M51.3697 51.0867L61.4401 61.1041L51.3697 71.1214L41.2992 61.1041L51.3697 51.0867Z" fill="#F2D9CA"/>
<path fill-rule="evenodd" clip-rule="evenodd" d="M41.2986 40.7745L51.6652 51.0864L41.2986 61.3984L30.9319 51.0864L41.2986 40.7745ZM41.2986 41.3637L31.5243 51.0864L41.2986 60.8091L51.0728 51.0864L41.2986 41.3637Z" fill="#F2D9CA"/>
<path fill-rule="evenodd" clip-rule="evenodd" d="M61.4394 20.7398L71.806 31.0517L61.4394 41.3637L51.0728 31.0517L61.4394 20.7398ZM61.4394 21.329L51.6652 31.0517L61.4394 40.7745L71.2136 31.0517L61.4394 21.329Z" fill="#F2D9CA"/>
<path fill-rule="evenodd" clip-rule="evenodd" d="M41.2986 20.7398L51.6652 31.0517L41.2986 41.3637L30.9319 31.0517L41.2986 20.7398ZM41.2986 21.329L31.5243 31.0517L41.2986 40.7745L51.0728 31.0517L41.2986 21.329Z" fill="#F2D9CA"/>
<path fill-rule="evenodd" clip-rule="evenodd" d="M21.1577 40.7745L31.5243 51.0864L21.1577 61.3984L10.7911 51.0864L21.1577 40.7745ZM21.1577 41.3637L11.3835 51.0864L21.1577 60.8091L30.9319 51.0864L21.1577 41.3637Z" fill="#F2D9CA"/>
<path fill-rule="evenodd" clip-rule="evenodd" d="M11.0873 30.7571L21.4539 41.0691L11.0873 51.3811L0.720703 41.0691L11.0873 30.7571ZM11.0873 31.3464L1.31308 41.0691L11.0873 50.7918L20.8615 41.0691L11.0873 31.3464Z" fill="#F2D9CA"/>
<path fill-rule="evenodd" clip-rule="evenodd" d="M21.1577 20.7398L31.5243 31.0517L21.1577 41.3637L10.7911 31.0517L21.1577 20.7398ZM21.1577 21.329L11.3835 31.0517L21.1577 40.7745L30.9319 31.0517L21.1577 21.329Z" fill="#F2D9CA"/>
<path fill-rule="evenodd" clip-rule="evenodd" d="M31.2281 10.7224L41.5947 21.0344L31.2281 31.3464L20.8615 21.0344L31.2281 10.7224ZM31.2281 11.3117L21.4539 21.0344L31.2281 30.7571L41.0024 21.0344L31.2281 11.3117Z" fill="#F2D9CA"/>
<path fill-rule="evenodd" clip-rule="evenodd" d="M41.2986 0.705078L51.6652 11.0171L41.2986 21.329L30.9319 11.0171L41.2986 0.705078ZM41.2986 1.29433L31.5243 11.0171L41.2986 20.7398L51.0728 11.0171L41.2986 1.29433Z" fill="#F2D9CA"/>
<path fill-rule="evenodd" clip-rule="evenodd" d="M51.369 10.7224L61.7356 21.0344L51.369 31.3464L41.0024 21.0344L51.369 10.7224ZM51.369 11.3117L41.5947 21.0344L51.369 30.7571L61.1432 21.0344L51.369 11.3117Z" fill="#F2D9CA"/>
<path fill-rule="evenodd" clip-rule="evenodd" d="M21.1577 60.8091L31.5243 71.1211L21.1577 81.4331L10.7911 71.1211L21.1577 60.8091ZM21.1577 61.3984L11.3835 71.1211L21.1577 80.8438L30.932 71.1211L21.1577 61.3984Z" fill="#F2D9CA"/>
<path fill-rule="evenodd" clip-rule="evenodd" d="M41.2986 60.8091L51.6652 71.1211L41.2986 81.4331L30.932 71.1211L41.2986 60.8091ZM41.2986 61.3984L31.5243 71.1211L41.2986 80.8438L51.0728 71.1211L41.2986 61.3984Z" fill="#F2D9CA"/>
<path fill-rule="evenodd" clip-rule="evenodd" d="M61.4394 40.7745L71.806 51.0864L61.4394 61.3984L51.0728 51.0864L61.4394 40.7745ZM61.4394 41.3637L51.6652 51.0864L61.4394 60.8091L71.2136 51.0864L61.4394 41.3637Z" fill="#F2D9CA"/>
<path fill-rule="evenodd" clip-rule="evenodd" d="M71.5098 30.7571L81.8764 41.0691L71.5098 51.3811L61.1432 41.0691L71.5098 30.7571ZM71.5098 31.3464L61.7356 41.0691L71.5098 50.7918L81.284 41.0691L71.5098 31.3464Z" fill="#F2D9CA"/>
<path fill-rule="evenodd" clip-rule="evenodd" d="M61.4394 60.8091L71.806 71.1211L61.4394 81.4331L51.0728 71.1211L61.4394 60.8091ZM61.4394 61.3984L51.6652 71.1211L61.4394 80.8438L71.2136 71.1211L61.4394 61.3984Z" fill="#F2D9CA"/>
<path fill-rule="evenodd" clip-rule="evenodd" d="M51.369 70.8265L55.8118 75.2459L51.369 79.6653L46.9261 75.2459L51.369 70.8265ZM51.369 71.4157L47.5185 75.2459L51.369 79.0761L55.2194 75.2459L51.369 71.4157Z" fill="#F2D9CA"/>
<path fill-rule="evenodd" clip-rule="evenodd" d="M31.2281 70.8265L35.671 75.2459L31.2281 79.6653L26.7853 75.2459L31.2281 70.8265ZM31.2281 71.4157L27.3777 75.2459L31.2281 79.0761L35.0786 75.2459L31.2281 71.4157Z" fill="#F2D9CA"/>
<path fill-rule="evenodd" clip-rule="evenodd" d="M17.0111 56.6844L21.4539 61.1038L17.0111 65.5232L12.5682 61.1038L17.0111 56.6844ZM17.0111 57.2736L13.1606 61.1038L17.0111 64.934L20.8615 61.1038L17.0111 57.2736Z" fill="#F2D9CA"/>
<path fill-rule="evenodd" clip-rule="evenodd" d="M65.586 56.6844L70.0289 61.1038L65.586 65.5232L61.1432 61.1038L65.586 56.6844ZM65.586 57.2736L61.7356 61.1038L65.586 64.934L69.4365 61.1038L65.586 57.2736Z" fill="#F2D9CA"/>
<path fill-rule="evenodd" clip-rule="evenodd" d="M51.369 30.7571L61.7356 41.0691L51.369 51.3811L41.0024 41.0691L51.369 30.7571ZM51.369 31.3464L41.5947 41.0691L51.369 50.7918L61.1432 41.0691L51.369 31.3464Z" fill="#F2D9CA"/>
<path fill-rule="evenodd" clip-rule="evenodd" d="M31.2281 30.7571L41.5947 41.0691L31.2281 51.3811L20.8615 41.0691L31.2281 30.7571ZM31.2281 31.3464L21.4539 41.0691L31.2281 50.7918L41.0024 41.0691L31.2281 31.3464Z" fill="#F2D9CA"/>
<path fill-rule="evenodd" clip-rule="evenodd" d="M31.2281 50.7918L41.5947 61.1038L31.2281 71.4157L20.8615 61.1038L31.2281 50.7918ZM31.2281 51.3811L21.4539 61.1038L31.2281 70.8265L41.0024 61.1038L31.2281 51.3811Z" fill="#F2D9CA"/>
<path fill-rule="evenodd" clip-rule="evenodd" d="M51.369 50.7918L61.7356 61.1038L51.369 71.4157L41.0024 61.1038L51.369 50.7918ZM51.369 51.3811L41.5947 61.1038L51.369 70.8265L61.1432 61.1038L51.369 51.3811Z" fill="#F2D9CA"/>
<path d="M231.575 46.7487V24.8154H238.19V32.6095H242.167L246.262 24.8154H253.664L247.718 34.9595L253.94 46.7487H246.459L242.482 38.0929H238.19V46.7487H231.575Z" fill="url(#paint0_linear_962_7915)"/>
<path d="M208.035 42.2837V29.2804L212.524 24.8154H228.116V37.192H214.65V41.2654H227.329V46.7487H212.524L208.035 42.2837ZM214.65 33.9804L222.525 33.5887V29.8287H214.65V33.9804Z" fill="url(#paint1_linear_962_7915)"/>
<path d="M204.566 24.8154V46.7487H197.951V30.142H193.108L190.509 46.7487H182.635V40.9912H184.958L187.517 24.8154H204.566Z" fill="url(#paint2_linear_962_7915)"/>
<path d="M180.144 46.7487H173.647V32.962L164.67 46.7487H158.095V24.8154H164.591V38.837L173.569 24.8154H180.144V46.7487Z" fill="url(#paint3_linear_962_7915)"/>
<path d="M136.901 42.2837V29.2804L141.389 24.8154H155.249V30.7687H143.515V40.7954H155.249V46.7487H141.389L136.901 42.2837Z" fill="url(#paint4_linear_962_7915)"/>
<path d="M113.213 42.0487V34.2154L126.836 33.8237V30.2987H114V24.8154H128.726L133.451 29.5154V46.7487H117.938L113.213 42.0487ZM119.828 37.8187V41.5004H126.836V37.0354L119.828 37.8187Z" fill="url(#paint5_linear_962_7915)"/>
<path d="M94.5358 30.4162H103.08V24.5804H94.5358V30.4162ZM94.5358 41.5004H103.749V34.9595H94.5358V41.5004ZM109.813 23.8754V30.3379L107.49 32.257L110.6 34.842V42.2054L106.033 46.7487H87.9209V19.332H105.246L109.813 23.8754Z" fill="url(#paint6_linear_962_7915)"/>
<path d="M216.42 17.0918L220.309 20.9604L216.42 24.8291L212.531 20.9604L216.42 17.0918Z" fill="#79350C"/>
<path d="M224.198 17.0918L228.087 20.9604L224.198 24.8291L220.309 20.9604L224.198 17.0918Z" fill="#79350C"/>
<path d="M249.554 57.339H252.515V55.0463H249.554V57.339ZM247.651 57.6856V54.7797L248.937 53.5H254.418V60.9647H252.515V58.8319H250.197L249.192 60.9647H247.088L248.495 58.5253L247.651 57.6856Z" fill="url(#paint7_linear_962_7915)"/>
<path d="M246.213 60.9647H244.337V55.7661L240.866 60.9647H238.843V53.5H240.719V58.7519L244.19 53.5H246.213V60.9647Z" fill="url(#paint8_linear_962_7915)"/>
<path d="M230.481 60.9647V53.5H232.384V56.4059H235.546V53.5H237.449V60.9647H235.546V58.0455H232.384V60.9647H230.481Z" fill="url(#paint9_linear_962_7915)"/>
<path d="M222.312 59.4984V56.6992L227.189 56.5659V55.0996H222.58V53.5H227.618L229.092 54.9663V60.9647H223.786L222.312 59.4984ZM224.215 57.8722V59.4184H227.189V57.6056L224.215 57.8722Z" fill="url(#paint10_linear_962_7915)"/>
<path d="M214.098 60.9647V53.5H221.012V60.9647H219.109V55.1529H216V60.9647H214.098Z" fill="url(#paint11_linear_962_7915)"/>
<path d="M204.478 60.9647V53.5H206.649L208.579 56.9258L210.495 53.5H212.666V60.9647H210.883V55.6061L209.034 59.0452H208.123L206.26 55.6061V60.9647H204.478Z" fill="url(#paint12_linear_962_7915)"/>
<path d="M196.349 59.5517V54.913L197.77 53.5H201.763L203.183 54.913V59.5517L201.763 60.9647H197.77L196.349 59.5517ZM198.252 59.4184H201.281V55.0463H198.252V59.4184Z" fill="url(#paint13_linear_962_7915)"/>
<path d="M188.395 60.9647V53.5H190.298V56.2859H192.067L193.675 53.5H195.832L193.688 56.9391L195.926 60.9647H193.782L192.201 57.8855H190.298V60.9647H188.395Z" fill="url(#paint14_linear_962_7915)"/>
<path d="M178.652 57.339H181.613V55.0463H178.652V57.339ZM176.749 57.6856V54.7797L178.036 53.5H183.516V60.9647H181.613V58.8319H179.295L178.29 60.9647H176.186L177.593 58.5253L176.749 57.6856Z" fill="url(#paint15_linear_962_7915)"/>
<path d="M168.54 59.4984V56.6992L173.418 56.5659V55.0996H168.808V53.5H173.846L175.32 54.9663V60.9647H170.014L168.54 59.4984ZM170.443 57.8722V59.4184H173.418V57.6056L170.443 57.8722Z" fill="url(#paint16_linear_962_7915)"/>
<path d="M160.312 60.9647V53.5H162.215V56.4059H165.377V53.5H167.28V60.9647H165.377V58.0455H162.215V60.9647H160.312Z" fill="url(#paint17_linear_962_7915)"/>
<path d="M152.133 60.9647V53.5H154.036V55.2595H157.721L159.141 56.6725V59.5517L157.721 60.9647H152.133ZM154.036 59.4184H157.238V56.8058H154.036V59.4184Z" fill="url(#paint18_linear_962_7915)"/>
<path d="M150.737 53.5V60.9647H148.835V55.0463H146.758L145.766 60.9647H143.327V59.2985H144.171L145.15 53.5H150.737Z" fill="url(#paint19_linear_962_7915)"/>
<path d="M135.825 59.5517V54.913L137.245 53.5H142.525V57.6856H137.728V59.3651H142.257V60.9647H137.245L135.825 59.5517ZM137.728 56.6458L140.863 56.5125V54.9929H137.728V56.6458Z" fill="url(#paint20_linear_962_7915)"/>
<path d="M132.427 60.9647H130.524V55.1529H127.991V53.5H134.96V55.1529H132.427V60.9647Z" fill="url(#paint21_linear_962_7915)"/>
<path d="M127.023 60.9647H125.147V55.7661L121.676 60.9647H119.652V53.5H121.528V58.7519L124.999 53.5H127.023V60.9647Z" fill="url(#paint22_linear_962_7915)"/>
<path d="M111.524 59.5517V54.913L112.944 53.5H116.937L118.358 54.913V59.5517L116.937 60.9647H112.944L111.524 59.5517ZM113.426 59.4184H116.455V55.0463H113.426V59.4184Z" fill="url(#paint23_linear_962_7915)"/>
<path d="M103.308 62.8309V53.5H108.788L110.316 55.0196V59.4451L108.788 60.9647H105.21V62.8309H103.308ZM108.413 55.0996H105.21V59.3651H108.413V55.0996Z" fill="url(#paint24_linear_962_7915)"/>
<path d="M99.8158 60.9647H97.9129V55.1529H95.3803V53.5H102.348V55.1529H99.8158V60.9647Z" fill="url(#paint25_linear_962_7915)"/>
<path d="M88.5439 59.5517V54.913L89.9644 53.5H94.7617V55.2062H90.4468V59.2585H94.7617V60.9647H89.9644L88.5439 59.5517Z" fill="url(#paint26_linear_962_7915)"/>
<defs>
<linearGradient id="paint0_linear_962_7915" x1="253.999" y1="30.7904" x2="88.1253" y2="30.7904" gradientUnits="userSpaceOnUse">
<stop stop-color="#642C09"/>
<stop offset="1" stop-color="#C35116"/>
</linearGradient>
<linearGradient id="paint1_linear_962_7915" x1="253.999" y1="30.7904" x2="88.1253" y2="30.7904" gradientUnits="userSpaceOnUse">
<stop stop-color="#642C09"/>
<stop offset="1" stop-color="#C35116"/>
</linearGradient>
<linearGradient id="paint2_linear_962_7915" x1="253.999" y1="30.7904" x2="88.1253" y2="30.7904" gradientUnits="userSpaceOnUse">
<stop stop-color="#642C09"/>
<stop offset="1" stop-color="#C35116"/>
</linearGradient>
<linearGradient id="paint3_linear_962_7915" x1="253.999" y1="30.7904" x2="88.1253" y2="30.7904" gradientUnits="userSpaceOnUse">
<stop stop-color="#642C09"/>
<stop offset="1" stop-color="#C35116"/>
</linearGradient>
<linearGradient id="paint4_linear_962_7915" x1="253.999" y1="30.7904" x2="88.1253" y2="30.7904" gradientUnits="userSpaceOnUse">
<stop stop-color="#642C09"/>
<stop offset="1" stop-color="#C35116"/>
</linearGradient>
<linearGradient id="paint5_linear_962_7915" x1="253.999" y1="30.7904" x2="88.1253" y2="30.7904" gradientUnits="userSpaceOnUse">
<stop stop-color="#642C09"/>
<stop offset="1" stop-color="#C35116"/>
</linearGradient>
<linearGradient id="paint6_linear_962_7915" x1="253.999" y1="30.7904" x2="88.1253" y2="30.7904" gradientUnits="userSpaceOnUse">
<stop stop-color="#642C09"/>
<stop offset="1" stop-color="#C35116"/>
</linearGradient>
<linearGradient id="paint7_linear_962_7915" x1="254.478" y1="57.3997" x2="88.7482" y2="57.3997" gradientUnits="userSpaceOnUse">
<stop stop-color="#642C09"/>
<stop offset="1" stop-color="#C35116"/>
</linearGradient>
<linearGradient id="paint8_linear_962_7915" x1="254.478" y1="57.3997" x2="88.7482" y2="57.3997" gradientUnits="userSpaceOnUse">
<stop stop-color="#642C09"/>
<stop offset="1" stop-color="#C35116"/>
</linearGradient>
<linearGradient id="paint9_linear_962_7915" x1="254.478" y1="57.3997" x2="88.7482" y2="57.3997" gradientUnits="userSpaceOnUse">
<stop stop-color="#642C09"/>
<stop offset="1" stop-color="#C35116"/>
</linearGradient>
<linearGradient id="paint10_linear_962_7915" x1="254.478" y1="57.3997" x2="88.7482" y2="57.3997" gradientUnits="userSpaceOnUse">
<stop stop-color="#642C09"/>
<stop offset="1" stop-color="#C35116"/>
</linearGradient>
<linearGradient id="paint11_linear_962_7915" x1="254.478" y1="57.3997" x2="88.7482" y2="57.3997" gradientUnits="userSpaceOnUse">
<stop stop-color="#642C09"/>
<stop offset="1" stop-color="#C35116"/>
</linearGradient>
<linearGradient id="paint12_linear_962_7915" x1="254.478" y1="57.3997" x2="88.7482" y2="57.3997" gradientUnits="userSpaceOnUse">
<stop stop-color="#642C09"/>
<stop offset="1" stop-color="#C35116"/>
</linearGradient>
<linearGradient id="paint13_linear_962_7915" x1="254.478" y1="57.3997" x2="88.7482" y2="57.3997" gradientUnits="userSpaceOnUse">
<stop stop-color="#642C09"/>
<stop offset="1" stop-color="#C35116"/>
</linearGradient>
<linearGradient id="paint14_linear_962_7915" x1="254.478" y1="57.3997" x2="88.7482" y2="57.3997" gradientUnits="userSpaceOnUse">
<stop stop-color="#642C09"/>
<stop offset="1" stop-color="#C35116"/>
</linearGradient>
<linearGradient id="paint15_linear_962_7915" x1="254.478" y1="57.3997" x2="88.7482" y2="57.3997" gradientUnits="userSpaceOnUse">
<stop stop-color="#642C09"/>
<stop offset="1" stop-color="#C35116"/>
</linearGradient>
<linearGradient id="paint16_linear_962_7915" x1="254.478" y1="57.3997" x2="88.7482" y2="57.3997" gradientUnits="userSpaceOnUse">
<stop stop-color="#642C09"/>
<stop offset="1" stop-color="#C35116"/>
</linearGradient>
<linearGradient id="paint17_linear_962_7915" x1="254.478" y1="57.3997" x2="88.7482" y2="57.3997" gradientUnits="userSpaceOnUse">
<stop stop-color="#642C09"/>
<stop offset="1" stop-color="#C35116"/>
</linearGradient>
<linearGradient id="paint18_linear_962_7915" x1="254.478" y1="57.3997" x2="88.7482" y2="57.3997" gradientUnits="userSpaceOnUse">
<stop stop-color="#642C09"/>
<stop offset="1" stop-color="#C35116"/>
</linearGradient>
<linearGradient id="paint19_linear_962_7915" x1="254.478" y1="57.3997" x2="88.7482" y2="57.3997" gradientUnits="userSpaceOnUse">
<stop stop-color="#642C09"/>
<stop offset="1" stop-color="#C35116"/>
</linearGradient>
<linearGradient id="paint20_linear_962_7915" x1="254.478" y1="57.3997" x2="88.7482" y2="57.3997" gradientUnits="userSpaceOnUse">
<stop stop-color="#642C09"/>
<stop offset="1" stop-color="#C35116"/>
</linearGradient>
<linearGradient id="paint21_linear_962_7915" x1="254.478" y1="57.3997" x2="88.7482" y2="57.3997" gradientUnits="userSpaceOnUse">
<stop stop-color="#642C09"/>
<stop offset="1" stop-color="#C35116"/>
</linearGradient>
<linearGradient id="paint22_linear_962_7915" x1="254.478" y1="57.3997" x2="88.7482" y2="57.3997" gradientUnits="userSpaceOnUse">
<stop stop-color="#642C09"/>
<stop offset="1" stop-color="#C35116"/>
</linearGradient>
<linearGradient id="paint23_linear_962_7915" x1="254.478" y1="57.3997" x2="88.7482" y2="57.3997" gradientUnits="userSpaceOnUse">
<stop stop-color="#642C09"/>
<stop offset="1" stop-color="#C35116"/>
</linearGradient>
<linearGradient id="paint24_linear_962_7915" x1="254.478" y1="57.3997" x2="88.7482" y2="57.3997" gradientUnits="userSpaceOnUse">
<stop stop-color="#642C09"/>
<stop offset="1" stop-color="#C35116"/>
</linearGradient>
<linearGradient id="paint25_linear_962_7915" x1="254.478" y1="57.3997" x2="88.7482" y2="57.3997" gradientUnits="userSpaceOnUse">
<stop stop-color="#642C09"/>
<stop offset="1" stop-color="#C35116"/>
</linearGradient>
<linearGradient id="paint26_linear_962_7915" x1="254.478" y1="57.3997" x2="88.7482" y2="57.3997" gradientUnits="userSpaceOnUse">
<stop stop-color="#642C09"/>
<stop offset="1" stop-color="#C35116"/>
</linearGradient>
</defs>
</svg>
